<?xml version="1.0" encoding="UTF-8"?>
<svg width="46px" height="44px" viewBox="0 0 46 44" version="1.1" xmlns="http://www.w3.org/2000/svg" xmlns:xlink="http://www.w3.org/1999/xlink">
    <!-- Generator: Sketch 51.2 (57519) - http://www.bohemiancoding.com/sketch -->
    <title>Shape</title>
    <desc>Created with Sketch.</desc>
    <defs></defs>
    <g id="Page-1" stroke="none" stroke-width="1" fill="none" fill-rule="evenodd">
        <path d="M43.1069091,6.02414545 C42.9265455,6.09629091 42.6740364,6.42094545 42.8183273,7.10632727 C42.9986909,8.15243636 43.0708364,8.76567273 43.0708364,9.81178182 C42.9265455,21.6075636 35.8923636,28.5335273 27.5234909,30.4453818 C26.6577455,30.5896727 26.4052364,30.1568 26.7659636,28.2810182 C27.0184727,26.9824 27.3792,25.1066182 27.6677818,23.6276364 C28.2088727,21.1386182 30.1207273,18.7578182 30.1207273,18.7578182 C27.0545455,16.2688 23.5194182,18.4331636 22.1486545,20.2728727 C21.8600727,20.6696727 21.3911273,21.3550545 21.1386182,21.9682909 C20.4171636,23.5194182 19.9842909,25.5034182 19.4792727,28.2449455 C19.1185455,30.0846545 19.1185455,30.6257455 17.7838545,30.2650182 C9.66749091,28.0285091 3.35476364,20.4532364 3.35476364,11.7957818 C3.35476364,8.04421818 4.58123636,4.32872727 6.45701818,1.40683636 C6.7456,0.829672727 6.70952727,0.3968 6.56523636,0 C2.52509091,4.11229091 0,9.73963636 0,15.9441455 C0,27.2349091 8.26065455,36.2530909 17.7477818,38.0567273 C17.3149091,40.9064727 15.4391273,42.1690182 15.4391273,42.1690182 C18.5053091,44.6580364 22.0765091,42.2411636 23.4833455,40.7621818 C23.9162182,40.3293091 24.3851636,39.7160727 24.8541091,38.3453091 C26.7298909,38.2731636 27.6317091,38.0928 27.6317091,38.0928 C37.0466909,36.5416727 45.4516364,27.3070545 45.4516364,15.9441455 C45.3794909,12.3729455 44.5498182,9.01818182 43.1069091,6.02414545" id="Shape" fill="#123F5C" fill-rule="nonzero"></path>
    </g>
</svg>