<?xml version="1.0" encoding="UTF-8"?>
<svg width="19px" height="19px" viewBox="0 0 19 19" version="1.1" xmlns="http://www.w3.org/2000/svg" xmlns:xlink="http://www.w3.org/1999/xlink">
    <!-- Generator: Sketch 51.2 (57519) - http://www.bohemiancoding.com/sketch -->
    <title>Dollar</title>
    <desc>Created with Sketch.</desc>
    <defs></defs>
    <g id="06.-Annonces" stroke="none" stroke-width="1" fill="none" fill-rule="evenodd">
        <g id="06.1-RECHERCHE-ANNONCE-Détails---Desktop-HD" transform="translate(-260.000000, -1321.000000)" fill="#123F5C">
            <path d="M271.20283,1332.49285 C271.20283,1333.14713 270.712594,1333.69833 270.037736,1333.89551 L270.037736,1331.09019 C270.712594,1331.28737 271.20283,1331.83858 271.20283,1332.49285 Z M268.962264,1329.84707 C268.288302,1329.64899 267.79717,1329.09868 267.79717,1328.44351 C267.79717,1327.78924 268.288302,1327.23893 268.962264,1327.04085 L268.962264,1329.84707 Z M270.106745,1326.9566 C270.711698,1326.9566 271.20283,1327.37874 271.20283,1327.895 C271.20283,1328.19256 271.443915,1328.43365 271.740566,1328.43365 C272.038113,1328.43365 272.278302,1328.19256 272.278302,1327.895 C272.278302,1326.78541 271.304104,1325.88198 270.106745,1325.88198 L270.037736,1325.88198 L270.037736,1325.12194 C270.037736,1324.82438 269.797547,1324.58507 269.5,1324.58507 C269.203349,1324.58507 268.962264,1324.82438 268.962264,1325.12194 L268.962264,1325.93217 C267.686934,1326.1634 266.721698,1327.20128 266.721698,1328.44351 C266.721698,1329.68664 267.686934,1330.72362 268.962264,1330.95575 L268.962264,1333.96184 C268.30533,1333.87669 267.79717,1333.38912 267.79717,1332.79669 C267.79717,1332.49913 267.556981,1332.25893 267.259434,1332.25893 C266.962783,1332.25893 266.721698,1332.49913 266.721698,1332.79669 C266.721698,1333.97797 267.711132,1334.93967 268.962264,1335.03646 L268.962264,1335.87716 C268.962264,1336.17473 269.203349,1336.41493 269.5,1336.41493 C269.797547,1336.41493 270.037736,1336.17473 270.037736,1335.87716 L270.037736,1335.00509 C271.313066,1334.77296 272.278302,1333.73598 272.278302,1332.49285 C272.278302,1331.24973 271.313066,1330.21275 270.037736,1329.98061 L270.037736,1326.9566 L270.106745,1326.9566 Z M269.5,1338.92537 C264.854858,1338.92537 261.075472,1335.14581 261.075472,1330.49955 C261.075472,1325.85419 264.854858,1322.07463 269.5,1322.07463 C274.145142,1322.07463 277.924528,1325.85419 277.924528,1330.49955 C277.924528,1335.14581 274.145142,1338.92537 269.5,1338.92537 Z M269.5,1321 C264.261557,1321 260,1325.26176 260,1330.49955 C260,1335.73824 264.261557,1340 269.5,1340 C274.738443,1340 279,1335.73824 279,1330.49955 C279,1325.26176 274.738443,1321 269.5,1321 Z" id="Dollar"></path>
        </g>
    </g>
</svg>