<?xml version="1.0" encoding="UTF-8"?>
<svg width="24px" height="25px" viewBox="0 0 24 25" version="1.1" xmlns="http://www.w3.org/2000/svg" xmlns:xlink="http://www.w3.org/1999/xlink">
    <!-- Generator: Sketch 51.2 (57519) - http://www.bohemiancoding.com/sketch -->
    <title>Pictos/Calendar</title>
    <desc>Created with Sketch.</desc>
    <defs></defs>
    <g id="06.-Annonces" stroke="none" stroke-width="1" fill="none" fill-rule="evenodd">
        <g id="06.0-RECHERCHE-ANNONCE-Filtrage-BUDGET---Desktop-HD-Copy" transform="translate(-1244.000000, -20.000000)" fill="#123F5C">
            <g id="Group-2" transform="translate(1213.000000, 20.000000)">
                <g id="Pictos/Calendar" transform="translate(31.000000, 0.000000)">
                    <path d="M16.424928,18.2246474 C16.424928,17.3805739 17.1181196,16.6955288 17.9722308,16.6955288 C18.8263419,16.6955288 19.5195335,17.3805739 19.5195335,18.2246474 C19.5195335,19.0687209 18.8263419,19.753766 17.9722308,19.753766 C17.1181196,19.753766 16.424928,19.0687209 16.424928,18.2246474 Z M10.3161768,18.2246474 C10.3161768,17.3805739 11.0093684,16.6955288 11.8634795,16.6955288 C12.7188285,16.6955288 13.4107823,17.3805739 13.4107823,18.2246474 C13.4107823,19.0687209 12.7188285,19.753766 11.8634795,19.753766 C11.0093684,19.753766 10.3161768,19.0687209 10.3161768,18.2246474 Z M4.20866344,18.2246474 C4.20866344,17.3805739 4.90061723,16.6955288 5.75596618,16.6955288 C6.61007729,16.6955288 7.30326892,17.3805739 7.30326892,18.2246474 C7.30326892,19.0687209 6.61007729,19.753766 5.75596618,19.753766 C4.90061723,19.753766 4.20866344,19.0687209 4.20866344,18.2246474 Z M16.424928,13.2360508 C16.424928,12.3919773 17.1181196,11.7069322 17.9722308,11.7069322 C18.8263419,11.7069322 19.5195335,12.3919773 19.5195335,13.2360508 C19.5195335,14.0813476 18.8263419,14.7651694 17.9722308,14.7651694 C17.1181196,14.7651694 16.424928,14.0813476 16.424928,13.2360508 Z M10.3161768,13.2360508 C10.3161768,12.3919773 11.0093684,11.7069322 11.8634795,11.7069322 C12.7188285,11.7069322 13.4107823,12.3919773 13.4107823,13.2360508 C13.4107823,14.0813476 12.7188285,14.7651694 11.8634795,14.7651694 C11.0093684,14.7651694 10.3161768,14.0813476 10.3161768,13.2360508 Z M4.20866344,13.2360508 C4.20866344,12.3919773 4.90061723,11.7069322 5.75596618,11.7069322 C6.61007729,11.7069322 7.30326892,12.3919773 7.30326892,13.2360508 C7.30326892,14.0813476 6.61007729,14.7651694 5.75596618,14.7651694 C4.90061723,14.7651694 4.20866344,14.0813476 4.20866344,13.2360508 Z M22.2427863,7.30062396 L1.48541063,7.30062396 L1.48541063,5.1072562 C1.48541063,4.02097033 2.37913269,3.13652812 3.4795744,3.13652812 L4.90433076,3.13652812 L4.90433076,3.9806016 C4.90433076,4.38551221 5.2373103,4.71457854 5.64827391,4.71457854 C6.05799968,4.71457854 6.39097923,4.38551221 6.39097923,3.9806016 L6.39097923,3.13652812 L17.3384556,3.13652812 L17.3384556,3.9806016 C17.3384556,4.38551221 17.6714351,4.71457854 18.0811609,4.71457854 C18.4908866,4.71457854 18.8226283,4.38551221 18.8226283,3.9806016 L18.8226283,3.13652812 L20.2473847,3.13652812 C21.3478264,3.13652812 22.2427863,4.02097033 22.2427863,5.1072562 L22.2427863,7.30062396 Z M22.2427863,21.2706517 C22.2427863,22.3581609 21.3478264,23.2426031 20.2473847,23.2426031 L3.4795744,23.2426031 C2.37913269,23.2426031 1.48541063,22.3581609 1.48541063,21.2706517 L1.48541063,8.76857784 L22.2427863,8.76857784 L22.2427863,21.2706517 Z M20.2473847,1.66857424 L18.8226283,1.66857424 L18.8226283,0.733976939 C18.8226283,0.327843033 18.4908866,0 18.0811609,0 C17.6714351,0 17.3384556,0.327843033 17.3384556,0.733976939 L17.3384556,1.66857424 L6.39097923,1.66857424 L6.39097923,0.733976939 C6.39097923,0.327843033 6.05799968,0 5.64827391,0 C5.2373103,0 4.90433076,0.327843033 4.90433076,0.733976939 L4.90433076,1.66857424 L3.4795744,1.66857424 C1.560919,1.66857424 0,3.21114911 0,5.1072562 L0,21.2706517 C0,23.1679821 1.560919,24.710557 3.4795744,24.710557 L20.2473847,24.710557 C22.1672779,24.710557 23.7269591,23.1679821 23.7269591,21.2706517 L23.7269591,5.1072562 C23.7269591,3.21114911 22.1672779,1.66857424 20.2473847,1.66857424 Z" id="Calendar"></path>
                </g>
            </g>
        </g>
    </g>
</svg>