<?xml version="1.0" encoding="UTF-8"?>
<svg width="21px" height="17px" viewBox="0 0 21 17" version="1.1" xmlns="http://www.w3.org/2000/svg" xmlns:xlink="http://www.w3.org/1999/xlink">
    <!-- Generator: Sketch 51.2 (57519) - http://www.bohemiancoding.com/sketch -->
    <title>iconCamera/Dark</title>
    <desc>Created with Sketch.</desc>
    <defs></defs>
    <g id="06.-Annonces" stroke="none" stroke-width="1" fill="none" fill-rule="evenodd">
        <g id="06.1-RECHERCHE-ANNONCE-Détails---Desktop-HD" transform="translate(-35.000000, -558.000000)" fill="#123F5C">
            <g id="Group-6" transform="translate(20.000000, 544.000000)">
                <g id="Camera/Dark" transform="translate(15.000000, 14.000000)">
                    <path d="M10.3856177,12.6388084 C8.81895711,12.6388084 7.54426949,11.3749275 7.54426949,9.8237128 C7.54426949,8.27152735 8.81895711,7.00764651 10.3856177,7.00764651 C11.9522784,7.00764651 13.226966,8.27152735 13.226966,9.8237128 C13.226966,11.3749275 11.9522784,12.6388084 10.3856177,12.6388084 Z M10.3856177,5.84375011 C8.17034588,5.84375011 6.36853918,7.62890898 6.36853918,9.8237128 C6.36853918,12.0175459 8.17034588,13.8027048 10.3856177,13.8027048 C12.6008896,13.8027048 14.4026963,12.0175459 14.4026963,9.8237128 C14.4026963,7.62890898 12.6008896,5.84375011 10.3856177,5.84375011 Z M19.5955052,14.0919801 C19.5955052,14.9607769 18.8822288,15.6664922 18.0053299,15.6664922 L2.76590556,15.6664922 C1.8890067,15.6664922 1.17573031,14.9607769 1.17573031,14.0919801 L1.17573031,5.70493677 C1.17573031,4.83711076 1.8890067,4.1304247 2.76590556,4.1304247 L4.93316843,4.1304247 C5.63370774,4.1304247 6.26664256,3.69165808 6.50766727,3.03739104 L7.07593692,1.49102993 C7.14648074,1.29591468 7.33655714,1.16486713 7.54622904,1.16486713 L13.2250064,1.16486713 C13.4346784,1.16486713 13.6247548,1.29591468 13.6962783,1.49200065 L14.2635682,3.03836177 C14.5045929,3.69165808 15.1375278,4.1304247 15.8380671,4.1304247 L18.0053299,4.1304247 C18.8822288,4.1304247 19.5955052,4.83711076 19.5955052,5.70493677 L19.5955052,14.0919801 Z M18.0053299,2.96652829 L15.8380671,2.96652829 C15.6293749,2.96652829 15.4402783,2.83451002 15.3677749,2.63939477 L14.8014648,1.09400438 C14.5623997,0.439737342 13.9284851,0 13.2250064,0 L7.54622904,0 C6.84275041,0 6.20883582,0.439737342 5.97075043,1.09303366 L5.40346055,2.63842405 C5.33095718,2.83451002 5.14186056,2.96652829 4.93316843,2.96652829 L2.76590556,2.96652829 C1.24039548,2.96652829 0,4.19546312 0,5.70493677 L0,14.0919801 C0,15.6024245 1.24039548,16.8303886 2.76590556,16.8303886 L18.0053299,16.8303886 C19.53084,16.8303886 20.7712355,15.6024245 20.7712355,14.0919801 L20.7712355,5.70493677 C20.7712355,4.19546312 19.53084,2.96652829 18.0053299,2.96652829 Z" id="Camera"></path>
                </g>
            </g>
        </g>
    </g>
</svg>