<?xml version="1.0" encoding="UTF-8"?>
<svg width="22px" height="27px" viewBox="0 0 22 27" version="1.1" xmlns="http://www.w3.org/2000/svg" xmlns:xlink="http://www.w3.org/1999/xlink">
    <!-- Generator: Sketch 51.2 (57519) - http://www.bohemiancoding.com/sketch -->
    <title>Plan2D/White</title>
    <desc>Created with Sketch.</desc>
    <defs></defs>
    <g id="06.-Annonces" stroke="none" stroke-width="1" fill="none" fill-rule="evenodd">
        <g id="06.1-RECHERCHE-ANNONCE-Détails---Desktop-HD" transform="translate(-275.000000, -1224.000000)" fill="#FFFFFF">
            <g id="Group-27" transform="translate(260.000000, 957.000000)">
                <g id="Group-25" transform="translate(0.000000, 258.000000)">
                    <g id="Plan2D/White" transform="translate(15.000000, 9.000000)">
                        <path d="M20.2192961,22.3028699 C20.2192961,23.9793867 18.8582847,25.3441703 17.1864017,25.3441703 L4.54934162,25.3441703 C2.87619487,25.3441703 1.5151835,23.9793867 1.5151835,22.3028699 L1.5151835,4.56195066 C1.5151835,2.88543379 2.87619487,1.52065022 4.54934162,1.52065022 L13.2701768,1.52065022 C13.7352206,1.52065022 14.1914184,1.70946429 14.5212457,2.04020571 L19.7011766,7.23322621 C20.0310039,7.56396763 20.2192961,8.0214299 20.2192961,8.48902985 L20.2192961,22.3028699 Z M20.7715356,6.15990059 C21.393279,6.78209998 21.7344796,7.60831993 21.7344796,8.48902985 L21.7344796,22.3028699 C21.7344796,24.8182788 19.6948581,26.8648205 17.1864017,26.8648205 L4.54934162,26.8648205 C2.03962149,26.8648205 0,24.8182788 0,22.3028699 L0,4.56195066 C0,2.04654175 2.03962149,0 4.54934162,0 L13.2701768,0 C14.1471887,0 14.9723887,0.343413508 15.5928684,0.965612889 L20.7715356,6.15990059 Z M15.8974215,15.0956214 C15.6851189,14.8827304 15.3805658,14.8295077 15.1151875,14.9207467 L9.34636961,9.137207 C9.43862015,8.87109321 9.38428079,8.56569596 9.17324189,8.35407214 L8.61215642,7.79143156 C8.31644922,7.49490477 7.83750464,7.49490477 7.54179744,7.79143156 L6.98071197,8.35407214 C6.68500476,8.64933172 6.68500476,9.13213817 6.98071197,9.42739775 L7.54179744,9.99003833 C7.68965104,10.1383017 7.88299806,10.2117998 8.07760878,10.2117998 C8.13321185,10.2117998 8.18881491,10.1927917 8.24441797,10.1801196 L8.87500727,10.8111895 C8.11678367,10.8593434 7.36740601,11.0861737 6.71154259,11.5233606 C6.42720874,11.3776317 6.07589847,11.4156479 5.83705803,11.6538831 L5.27723627,12.2165237 C4.98026536,12.5117833 4.98026536,12.9945897 5.27723627,13.2898493 L5.83705803,13.8524899 C5.98491164,14.0007533 6.17952236,14.0742514 6.37286938,14.0742514 C6.5662164,14.0742514 6.76082712,14.0007533 6.90868073,13.8524899 L7.46850249,13.2898493 C7.62646574,13.1327155 7.69344216,12.923626 7.68333251,12.7170711 C8.79918491,12.0581226 10.2549742,12.1975156 11.2128634,13.1580596 C11.7625755,13.7067609 12.0646012,14.4379402 12.0646012,15.2185407 C12.0646012,15.7380962 11.919275,16.2310403 11.6652701,16.6694944 C11.4441216,16.6441502 11.2141271,16.7049763 11.0435268,16.8747822 L10.483705,17.4374228 C10.1867341,17.7326824 10.1867341,18.2154888 10.483705,18.5107484 L11.0435268,19.073389 C11.1913804,19.2216524 11.3859911,19.2951505 11.5793381,19.2951505 C11.7726851,19.2951505 11.9672959,19.2216524 12.1151495,19.073389 L12.6749712,18.5107484 C12.8999109,18.2877197 12.9517228,17.9569783 12.8367256,17.6807268 C13.2676493,17.0357177 13.5026987,16.2855302 13.5519832,15.5011282 L14.0764212,16.0257525 C14.0208181,16.2728582 14.0738938,16.5402392 14.2647134,16.7315876 L14.8245351,17.2942282 C14.9673339,17.4374228 15.1606809,17.5172569 15.3616102,17.5172569 C15.5625394,17.5172569 15.7571502,17.4374228 15.8986852,17.2942282 L16.458507,16.7315876 C16.7542142,16.4350608 16.7542142,15.9535216 16.4572433,15.6569948 L15.8974215,15.0956214 Z" id="Vector-file"></path>
                    </g>
                </g>
            </g>
        </g>
    </g>
</svg>