<?xml version="1.0" encoding="UTF-8"?>
<svg width="19px" height="23px" viewBox="0 0 19 23" version="1.1" xmlns="http://www.w3.org/2000/svg" xmlns:xlink="http://www.w3.org/1999/xlink">
    <!-- Generator: Sketch 51.2 (57519) - http://www.bohemiancoding.com/sketch -->
    <title>Paint brush</title>
    <desc>Created with Sketch.</desc>
    <defs></defs>
    <g id="06.-Annonces" stroke="none" stroke-width="1" fill="none" fill-rule="evenodd">
        <g id="06.1-RECHERCHE-ANNONCE-Détails---Desktop-HD" transform="translate(-260.000000, -2196.000000)" fill="#123F5C">
            <g id="Group-36" transform="translate(260.000000, 2187.000000)">
                <path d="M8.76505495,25.8035165 L8.76505495,29.3821978 C8.76505495,29.6807692 8.52181319,29.924011 8.22115385,29.924011 L7.05296703,29.924011 C6.7543956,29.924011 6.51115385,29.6807692 6.51115385,29.3821978 L6.51115385,25.8035165 C6.51115385,25.5039011 6.7543956,25.2596154 7.05296703,25.2596154 L8.22115385,25.2596154 C8.52181319,25.2596154 8.76505495,25.5039011 8.76505495,25.8035165 Z M15.1916484,15.4693956 C15.1916484,15.767967 14.9484066,16.0112088 14.6487912,16.0112088 L1.79456044,16.0112088 C1.49598901,16.0112088 1.25274725,15.767967 1.25274725,15.4693956 L1.25274725,10.7945604 C1.25274725,10.495989 1.49598901,10.2527473 1.79456044,10.2527473 L14.6487912,10.2527473 C14.9484066,10.2527473 15.1916484,10.495989 15.1916484,10.7945604 L15.1916484,15.4693956 Z M17.2054396,12.5056044 L16.4433516,12.5056044 L16.4433516,10.7945604 C16.4433516,9.80489011 15.6384615,9 14.6487912,9 L1.79456044,9 C0.80489011,9 0,9.80489011 0,10.7945604 L0,15.4693956 C0,16.4590659 0.80489011,17.2629121 1.79456044,17.2629121 L14.6487912,17.2629121 C15.6384615,17.2629121 16.4433516,16.4590659 16.4433516,15.4693956 L16.4433516,13.7573077 L17.2054396,13.7573077 C17.504011,13.7573077 17.7472527,14.0005495 17.7472527,14.3001648 L17.7472527,18.5730769 C17.7472527,18.8716484 17.504011,19.1159341 17.2054396,19.1159341 L8.80576923,19.1159341 C7.8160989,19.1159341 7.01120879,19.9197802 7.01120879,20.9104945 L7.01120879,24.008956 C6.04137363,24.0319231 5.25945055,24.8274176 5.25945055,25.8035165 L5.25945055,29.3821978 C5.25945055,30.3718681 6.0632967,31.1757143 7.05296703,31.1757143 L8.22115385,31.1757143 C9.21186813,31.1757143 10.0167582,30.3718681 10.0167582,29.3821978 L10.0167582,25.8035165 C10.0167582,24.8274176 9.23379121,24.0319231 8.26395604,24.008956 L8.26395604,20.9104945 C8.26395604,20.6108791 8.5071978,20.3676374 8.80576923,20.3676374 L17.2054396,20.3676374 C18.1951099,20.3676374 19,19.5627473 19,18.5730769 L19,14.3001648 C19,13.3104945 18.1951099,12.5056044 17.2054396,12.5056044 Z" id="Paint-brush"></path>
            </g>
        </g>
    </g>
</svg>