<?xml version="1.0" encoding="UTF-8"?>
<svg width="37px" height="23px" viewBox="0 0 37 23" version="1.1" xmlns="http://www.w3.org/2000/svg" xmlns:xlink="http://www.w3.org/1999/xlink">
    <!-- Generator: Sketch 51.2 (57519) - http://www.bohemiancoding.com/sketch -->
    <title>School/Dark</title>
    <desc>Created with Sketch.</desc>
    <defs></defs>
    <g id="06.-Annonces" stroke="none" stroke-width="1" fill="none" fill-rule="evenodd">
        <g id="06.1-RECHERCHE-ANNONCE-Détails---Desktop-HD" transform="translate(-261.000000, -1679.000000)" fill="#123F5C">
            <g id="Group-29" transform="translate(260.000000, 1564.000000)">
                <g id="Group-7" transform="translate(1.000000, 115.000000)">
                    <g id="School/Dark">
                        <path d="M18.5420592,15.3055033 C18.2060388,15.3055033 17.8685082,15.2480033 17.5483449,15.1330033 L0.0367734694,9.04107 L-0.000226530612,5.93070333 L17.3218143,0.189136667 C18.0217939,-0.0638633333 18.814651,-0.0638633333 19.5380388,0.19527 L36.2446714,5.93300333 L36.2809163,9.01347 L33.1993449,10.2271033 L32.6534061,8.79803667 L34.7593857,7.96850333 L34.7480592,7.03700333 L19.0449571,1.64427 C18.6387122,1.49937 18.2030184,1.49783667 17.8088551,1.64043667 L1.52356939,7.03930333 L1.53414082,7.94167 L18.0444469,13.68477 C18.3691408,13.8013033 18.7164878,13.8013033 19.0306102,13.6878367 L30.2944673,9.58387 L30.8049163,11.0267367 L19.5387939,15.13147 C19.2178755,15.2472367 18.8795898,15.3055033 18.5420592,15.3055033" id="Fill-1"></path>
                        <path d="M32.4074694,21.7974833 L30.8972653,21.7974833 L30.8972653,12.5974833 C30.8972653,11.1615167 30.3588776,11.00665 30.0998776,10.9322833 L18.5853265,7.19478333 L19.0459388,5.73351667 L30.5355714,9.46411667 C31.3767551,9.70561667 32.4074694,10.45235 32.4074694,12.5974833 L32.4074694,21.7974833 Z" id="Fill-4"></path>
                        <path d="M18.0605306,22.56415 C13.1825714,22.56415 8.24420408,21.2477833 8.24420408,18.7308167 L8.24420408,11.8308167 L9.75440816,11.8308167 L9.75440816,18.7308167 C9.75440816,19.5112833 12.6864694,21.0308167 18.0605306,21.0308167 C23.4345918,21.0308167 26.3666531,19.5112833 26.3666531,18.7308167 L26.3666531,11.8308167 L27.8768571,11.8308167 L27.8768571,18.7308167 C27.8768571,21.2477833 22.9384898,22.56415 18.0605306,22.56415" id="Fill-6"></path>
                    </g>
                </g>
            </g>
        </g>
    </g>
</svg>