<?xml version="1.0" encoding="UTF-8"?>
<svg width="24px" height="25px" viewBox="0 0 24 25" version="1.1" xmlns="http://www.w3.org/2000/svg" xmlns:xlink="http://www.w3.org/1999/xlink">
    <!-- Generator: Sketch 51.2 (57519) - http://www.bohemiancoding.com/sketch -->
    <title>Pictos/User</title>
    <desc>Created with Sketch.</desc>
    <defs></defs>
    <g id="06.-Annonces" stroke="none" stroke-width="1" fill="none" fill-rule="evenodd">
        <g id="06.0-RECHERCHE-ANNONCE-Filtrage-BUDGET---Desktop-HD-Copy" transform="translate(-1367.000000, -20.000000)" fill="#123F5C">
            <g id="Group" transform="translate(1338.000000, 20.000000)">
                <g id="Pictos/User" transform="translate(29.000000, 0.000000)">
                    <path d="M22.0438409,22.6295426 C21.7377778,23.0264682 21.2598484,23.2631889 20.7654388,23.2631889 L3.01260014,23.2631889 C2.51819047,23.2631889 2.04026112,23.0264682 1.73419799,22.6295426 C1.44579235,22.2565281 1.34691042,21.8058023 1.45403251,21.3598588 C2.63943855,16.4771955 6.93020818,13.0662654 11.889608,13.0662654 C16.8478307,13.0662654 21.1386003,16.4771955 22.3240064,21.3598588 C22.4311285,21.8058023 22.3322465,22.2565281 22.0438409,22.6295426 M6.86899556,6.53373046 C6.86899556,3.72297102 9.12091388,1.43467091 11.889608,1.43467091 C14.657125,1.43467091 16.9090433,3.72297102 16.9090433,6.53373046 C16.9090433,9.34568545 14.657125,11.6315944 11.889608,11.6315944 C9.12091388,11.6315944 6.86899556,9.34568545 6.86899556,6.53373046 M23.6954046,21.0167333 C22.6312467,16.6314226 19.3540169,13.2970083 15.2433536,12.1062314 C17.0879725,10.9561036 18.3216424,8.88898188 18.3216424,6.53373046 C18.3216424,2.9315109 15.4364088,0 11.889608,0 C8.34163007,0 5.4563965,2.9315109 5.4563965,6.53373046 C5.4563965,8.88898188 6.69006634,10.9561036 8.53468527,12.1062314 C4.42402202,13.2970083 1.14679222,16.6314226 0.0826342634,21.0167333 C-0.128078429,21.8859048 0.0685082728,22.7969208 0.622953402,23.5130607 C1.20211901,24.266263 2.07439893,24.6966642 3.01260014,24.6966642 L20.7654388,24.6966642 C21.70364,24.6966642 22.5759199,24.266263 23.1550855,23.5130607 C23.7095306,22.7969208 23.9061173,21.8859048 23.6954046,21.0167333" id="User"></path>
                </g>
            </g>
        </g>
    </g>
</svg>