<?xml version="1.0" encoding="UTF-8"?>
<svg width="46px" height="41px" viewBox="0 0 46 41" version="1.1" xmlns="http://www.w3.org/2000/svg" xmlns:xlink="http://www.w3.org/1999/xlink">
    <!-- Generator: Sketch 51.2 (57519) - http://www.bohemiancoding.com/sketch -->
    <title>Bed</title>
    <desc>Created with Sketch.</desc>
    <defs></defs>
    <g id="06.-Annonces" stroke="none" stroke-width="1" fill="none" fill-rule="evenodd">
        <g id="06.1-RECHERCHE-ANNONCE-Détails---Desktop-HD" transform="translate(-260.000000, -865.000000)" fill="#8FBA0C">
            <g id="Group-26" transform="translate(260.000000, 835.000000)">
                <g id="Bed" transform="translate(0.000000, 30.000000)">
                    <path d="M0,22.0001 L0,41.0001 L4.535,41.0001 L6.535,38.0001 L39.465,38.0001 L41.465,41.0001 L46,41.0001 L46,22.0001 L0,22.0001 Z M2,24.0001 L44,24.0001 L44,39.0001 L42.535,39.0001 L40.535,35.9991 L5.465,35.9991 L3.464,39.0001 L2,39.0001 L2,24.0001 Z" id="Fill-1"></path>
                    <polygon id="Fill-2" points="23.0004 -0.0004 23.0004 2.0006 42.0004 2.0006 42.0004 14.9996 44.0004 14.9996 44.0004 -0.0004"></polygon>
                    <polygon id="Fill-3" points="1.9998 -0.0004 1.9998 14.9996 3.9998 14.9996 3.9998 2.0006 23.0008 2.0006 23.0008 -0.0004"></polygon>
                    <polygon id="Fill-4" points="4.9746 23.2251 3.0256 22.7751 6.2046 9.0001 10.9996 9.0001 10.9996 11.0001 7.7956 11.0001"></polygon>
                    <polygon id="Fill-5" points="41.0254 23.2251 38.2044 11.0001 35.0004 11.0001 35.0004 9.0001 39.7964 9.0001 42.9744 22.7751"></polygon>
                    <path d="M13,8 C12.449,8 12,8.449 12,9 L12,11 C12,11.551 12.449,12 13,12 L21,12 C21.551,12 22,11.551 22,11 L22,9 C22,8.449 21.551,8 21,8 L13,8 Z M21,14 L13,14 C11.346,14 10,12.654 10,11 L10,9 C10,7.346 11.346,6 13,6 L21,6 C22.654,6 24,7.346 24,9 L24,11 C24,12.654 22.654,14 21,14 Z" id="Fill-6"></path>
                    <path d="M25,8 C24.448,8 24,8.449 24,9 L24,11 C24,11.551 24.448,12 25,12 L33,12 C33.552,12 34,11.551 34,11 L34,9 C34,8.449 33.552,8 33,8 L25,8 Z M33,14 L25,14 C23.346,14 22,12.654 22,11 L22,9 C22,7.346 23.346,6 25,6 L33,6 C34.654,6 36,7.346 36,9 L36,11 C36,12.654 34.654,14 33,14 Z" id="Fill-8"></path>
                </g>
            </g>
        </g>
    </g>
</svg>