<?xml version="1.0" encoding="UTF-8"?>
<svg width="28px" height="30px" viewBox="0 0 28 30" version="1.1" xmlns="http://www.w3.org/2000/svg" xmlns:xlink="http://www.w3.org/1999/xlink">
    <!-- Generator: Sketch 51.2 (57519) - http://www.bohemiancoding.com/sketch -->
    <title>Shopping/Dark</title>
    <desc>Created with Sketch.</desc>
    <defs></defs>
    <g id="06.-Annonces" stroke="none" stroke-width="1" fill="none" fill-rule="evenodd">
        <g id="06.1-RECHERCHE-ANNONCE-Détails---Desktop-HD" transform="translate(-545.000000, -1619.000000)" fill="#123F5C">
            <g id="Group-29" transform="translate(260.000000, 1564.000000)">
                <g id="Group-10" transform="translate(285.000000, 55.000000)">
                    <g id="Shopping/Dark">
                        <path d="M21.3333333,14.3181818 L22.6666667,14.3181818 C22.6666667,15.4459091 23.564,16.3636364 24.6666667,16.3636364 C25.7693333,16.3636364 26.6666667,15.4459091 26.6666667,14.3181818 L26.6666667,10.9090909 L1.33333333,10.9090909 L1.33333333,14.3181818 C1.33333333,15.4459091 2.23066667,16.3636364 3.33333333,16.3636364 C4.436,16.3636364 5.33333333,15.4459091 5.33333333,14.3181818 L6.66666667,14.3181818 C6.66666667,15.4459091 7.564,16.3636364 8.66666667,16.3636364 C9.76933333,16.3636364 10.6666667,15.4459091 10.6666667,14.3181818 L12,14.3181818 C12,15.4459091 12.8973333,16.3636364 14,16.3636364 C15.1026667,16.3636364 16,15.4459091 16,14.3181818 L17.3333333,14.3181818 C17.3333333,15.4459091 18.2306667,16.3636364 19.3333333,16.3636364 C20.436,16.3636364 21.3333333,15.4459091 21.3333333,14.3181818 M24.6666667,17.7272727 C23.5773333,17.7272727 22.6086667,17.19 22,16.3615909 C21.3913333,17.19 20.4226667,17.7272727 19.3333333,17.7272727 C18.244,17.7272727 17.2753333,17.19 16.6666667,16.3615909 C16.058,17.19 15.0893333,17.7272727 14,17.7272727 C12.9106667,17.7272727 11.942,17.19 11.3333333,16.3615909 C10.7246667,17.19 9.756,17.7272727 8.66666667,17.7272727 C7.57733333,17.7272727 6.60866667,17.19 6,16.3615909 C5.39133333,17.19 4.42266667,17.7272727 3.33333333,17.7272727 C1.49533333,17.7272727 0,16.1979545 0,14.3181818 L0,9.54545455 L28,9.54545455 L28,14.3181818 C28,16.1979545 26.5046667,17.7272727 24.6666667,17.7272727" id="Fill-1"></path>
                        <polygon id="Fill-3" points="5.33333333 14.3181818 6.66666667 14.3181818 6.66666667 12.9545455 5.33333333 12.9545455"></polygon>
                        <polygon id="Fill-5" points="10.6666667 14.3181818 12 14.3181818 12 12.9545455 10.6666667 12.9545455"></polygon>
                        <polygon id="Fill-6" points="16 14.3181818 17.3333333 14.3181818 17.3333333 12.9545455 16 12.9545455"></polygon>
                        <polygon id="Fill-7" points="21.3333333 14.3181818 22.6666667 14.3181818 22.6666667 12.9545455 21.3333333 12.9545455"></polygon>
                        <polygon id="Fill-8" points="26 30 2 30 2 17.0454545 3.33333333 17.0454545 3.33333333 28.6363636 24.6666667 28.6363636 24.6666667 17.0454545 26 17.0454545"></polygon>
                        <path d="M6,28.6363636 L10.6666667,28.6363636 L10.6666667,20.4545455 L6,20.4545455 L6,28.6363636 Z M4.66666667,30 L12,30 L12,19.0909091 L4.66666667,19.0909091 L4.66666667,30 Z" id="Fill-9"></path>
                        <polygon id="Fill-10" points="8.66666667 25.2272727 10 25.2272727 10 23.8636364 8.66666667 23.8636364"></polygon>
                        <path d="M1.6094,9.54545455 L26.3907333,9.54545455 L22.3907333,5.45454545 L5.6094,5.45454545 L1.6094,9.54545455 Z M28.0000667,10.9090909 L6.66666667e-05,10.9090909 L6.66666667e-05,9.26318182 L5.0574,4.09090909 L22.9427333,4.09090909 L28.0000667,9.26318182 L28.0000667,10.9090909 Z" id="Fill-11"></path>
                        <path d="M6,4.09090909 L22,4.09090909 L22,1.36363636 L6,1.36363636 L6,4.09090909 Z M4.66666667,5.45454545 L23.3333333,5.45454545 L23.3333333,0 L4.66666667,0 L4.66666667,5.45454545 Z" id="Fill-12"></path>
                        <polygon id="Fill-13" points="6.66666667 10.2272727 5.33333333 10.2272727 5.33333333 9.35659091 7.33333333 5.9475 7.33333333 4.77272727 8.66666667 4.77272727 8.66666667 6.32522727 6.66666667 9.73431818"></polygon>
                        <polygon id="Fill-14" points="22.6666667 10.2272727 21.3333333 10.2272727 21.3333333 9.73431818 19.3333333 6.32522727 19.3333333 4.77272727 20.6666667 4.77272727 20.6666667 5.9475 22.6666667 9.35659091"></polygon>
                        <polygon id="Fill-15" points="12 10.2272727 10.6666667 10.2272727 10.68 9.41181818 11.3333333 6.06886364 11.3333333 4.77272727 12.6666667 4.77272727 12.6533333 6.27 12 9.61295455"></polygon>
                        <polygon id="Fill-16" points="17.3333333 10.2272727 16 10.2272727 16 9.61295455 15.3333333 6.13636364 15.3333333 4.77272727 16.6666667 4.77272727 16.6666667 6.06886364 17.3333333 9.54545455"></polygon>
                        <path d="M14.6666667,24.5454545 L22,24.5454545 L22,20.4545455 L14.6666667,20.4545455 L14.6666667,24.5454545 Z M13.3333333,25.9090909 L23.3333333,25.9090909 L23.3333333,19.0909091 L13.3333333,19.0909091 L13.3333333,25.9090909 Z" id="Fill-17"></path>
                    </g>
                </g>
            </g>
        </g>
    </g>
</svg>