<?xml version="1.0" encoding="UTF-8"?>
<svg width="14px" height="17px" viewBox="0 0 14 17" version="1.1" xmlns="http://www.w3.org/2000/svg" xmlns:xlink="http://www.w3.org/1999/xlink">
    <!-- Generator: Sketch 51.2 (57519) - http://www.bohemiancoding.com/sketch -->
    <title>Location/Dark</title>
    <desc>Created with Sketch.</desc>
    <defs></defs>
    <g id="06.-Annonces" stroke="none" stroke-width="1" fill="none" fill-rule="evenodd">
        <g id="06.1-RECHERCHE-ANNONCE-Détails---Desktop-HD" transform="translate(-260.000000, -750.000000)" fill="#8FBA0C">
            <g id="Group-12" transform="translate(260.000000, 743.000000)">
                <g id="Location/Green" transform="translate(0.000000, 7.000000)">
                    <path d="M6.99822685,8.72675925 C5.95561497,8.72675925 5.10686744,7.87209709 5.10686744,6.82221963 C5.10686744,5.77234216 5.95561497,4.91768001 6.99822685,4.91768001 C8.04083873,4.91768001 8.88958627,5.77234216 8.88958627,6.82221963 C8.88958627,7.87209709 8.04083873,8.72675925 6.99822685,8.72675925 M6.99822685,3.9654102 C5.43470307,3.9654102 4.16118773,5.24700665 4.16118773,6.82221963 C4.16118773,8.39743261 5.43470307,9.67902906 6.99822685,9.67902906 C8.56175063,9.67902906 9.83526597,8.39743261 9.83526597,6.82221963 C9.83526597,5.24700665 8.56175063,3.9654102 6.99822685,3.9654102 M11.2805798,11.3589917 L6.99822685,15.6711868 L2.71587391,11.3589917 C0.354826907,8.98149142 0.354826907,5.11289532 2.71587391,2.73539503 C3.89639741,1.54585132 5.44652406,0.951476252 6.99822685,0.951476252 C8.54914157,0.951476252 10.1000563,1.54664488 11.2805798,2.73539503 C13.6416268,5.11289532 13.6416268,8.98149142 11.2805798,11.3589917 M11.9496482,2.06166414 C9.21899803,-0.687221379 4.77745567,-0.687221379 2.04680552,2.06166414 C-0.682268505,4.81054966 -0.682268505,9.28383709 2.04680552,12.0327226 L6.66408669,16.6813864 C6.75629046,16.7750263 6.87765269,16.8210526 6.99822685,16.8210526 C7.11880101,16.8210526 7.24016324,16.7750263 7.33236701,16.6813864 L11.9496482,12.0327226 C14.6787222,9.28383709 14.6787222,4.81054966 11.9496482,2.06166414" id="Location-point"></path>
                </g>
            </g>
        </g>
    </g>
</svg>