<?xml version="1.0" encoding="utf-8"?>
<!-- Generator: Adobe Illustrator 15.0.0, SVG Export Plug-In . SVG Version: 6.00 Build 0)  -->
<!DOCTYPE svg PUBLIC "-//W3C//DTD SVG 1.1//EN" "http://www.w3.org/Graphics/SVG/1.1/DTD/svg11.dtd">
<svg version="1.1" id="Calque_1" xmlns="http://www.w3.org/2000/svg" xmlns:xlink="http://www.w3.org/1999/xlink" x="0px" y="0px"
	 width="24px" height="44px" viewBox="15.75 0 24 44" enable-background="new 15.75 0 24 44" xml:space="preserve">
<title>Arrow/White Copy</title>
<desc>Created with Sketch.</desc>
<g id="_x30_6.-Annonces">
	<g id="_x30_6.1-RECHERCHE-ANNONCE-Détails---Desktop-HD" transform="translate(-20.000000, -359.000000)">
		
			<g id="Arrow_x2F_White" transform="translate(31.500000, 381.000000) scale(-1, 1) translate(-31.500000, -381.000000) translate(20.000000, 359.000000)">
			<path id="Right-arrow" fill="#FFFFFF" d="M-14.673,43.797c-0.354,0-0.709-0.134-0.979-0.399c-0.543-0.531-0.543-1.395,0-1.926
				L3.516,22.643c0.358-0.354,0.358-0.931,0-1.285l-19.168-18.83c-0.543-0.531-0.543-1.394,0-1.925c0.541-0.534,1.419-0.534,1.96,0
				L5.476,19.432C6.176,20.118,6.56,21.031,6.56,22c0,0.969-0.384,1.881-1.084,2.567l-19.168,18.83
				C-13.963,43.663-14.319,43.797-14.673,43.797"/>
		</g>
	</g>
</g>
</svg>
