<?xml version="1.0" encoding="UTF-8"?>
<svg width="48px" height="47px" viewBox="0 0 48 47" version="1.1" xmlns="http://www.w3.org/2000/svg" xmlns:xlink="http://www.w3.org/1999/xlink">
    <!-- Generator: Sketch 51.2 (57519) - http://www.bohemiancoding.com/sketch -->
    <title>Terrain/Green</title>
    <desc>Created with Sketch.</desc>
    <defs></defs>
    <g id="06.-Annonces" stroke="none" stroke-width="1" fill="none" fill-rule="evenodd">
        <g id="06.1-RECHERCHE-ANNONCE-Détails---Desktop-HD" transform="translate(-662.000000, -862.000000)" fill="#8FBA0C">
            <g id="Group-26" transform="translate(260.000000, 835.000000)">
                <g id="Terrain/Green" transform="translate(402.000000, 27.000000)">
                    <polygon id="Fill-1" points="29 47 31 47 31 23 29 23"></polygon>
                    <polygon id="Fill-2" points="29.293 35.707 25.293 31.707 26.707 30.293 30.707 34.293"></polygon>
                    <polygon id="Fill-3" points="30.707 35.707 29.293 34.293 33.293 30.293 34.707 31.707"></polygon>
                    <path d="M11,11.8677 C7.878,16.8727 2,27.0997 2,30.9997 C2,35.9627 6.038,39.9997 11,39.9997 C15.962,39.9997 20,35.9627 20,30.9997 C20,27.0987 14.122,16.8717 11,11.8677 M11,41.9997 C4.935,41.9997 0,37.0657 0,30.9997 C0,25.2477 9.745,10.0997 10.16,9.4577 C10.528,8.8877 11.472,8.8877 11.84,9.4577 C12.255,10.0997 22,25.2477 22,30.9997 C22,37.0657 17.065,41.9997 11,41.9997" id="Fill-4"></path>
                    <polygon id="Fill-6" points="10 47 12 47 12 22 10 22"></polygon>
                    <polygon id="Fill-8" points="10.293 35.707 5.293 30.707 6.707 29.293 11.707 34.293"></polygon>
                    <polygon id="Fill-9" points="11.707 30.707 10.293 29.293 14.293 25.293 15.707 26.707"></polygon>
                    <path d="M38.6411,41 L21.0001,41 L21.0001,39 L38.6411,39 C42.6781,39 45.9621,35.716 45.9621,31.679 C45.9621,27.642 42.6781,24.358 38.6411,24.358 C38.1311,24.358 37.6491,23.977 37.5931,23.47 C37.1931,19.842 33.8581,17 30.0001,17 C26.3261,17 23.4671,19.661 23.0471,23.47 L21.0581,23.25 C21.5861,18.47 25.3461,15 30.0001,15 C34.5591,15 38.5441,18.187 39.4441,22.398 C44.2331,22.825 47.9621,26.825 47.9621,31.679 C47.9621,36.818 43.7811,41 38.6411,41" id="Fill-10"></path>
                    <path d="M28.4321,14.4624 C26.4741,10.7054 24.1981,7.0014 23.0001,5.1044 C21.8021,7.0014 19.5261,10.7054 17.5681,14.4624 L15.7941,13.5374 C18.6361,8.0864 22.1291,2.7544 22.1641,2.7014 C22.5341,2.1374 23.4661,2.1374 23.8361,2.7014 C23.8701,2.7544 27.3641,8.0864 30.2051,13.5374 L28.4321,14.4624 Z" id="Fill-11"></path>
                    <path d="M39.5,2 C37.57,2 36,3.57 36,5.5 C36,7.43 37.57,9 39.5,9 C41.43,9 43,7.43 43,5.5 C43,3.57 41.43,2 39.5,2 M39.5,11 C36.467,11 34,8.533 34,5.5 C34,2.467 36.467,0 39.5,0 C42.533,0 45,2.467 45,5.5 C45,8.533 42.533,11 39.5,11" id="Fill-12"></path>
                </g>
            </g>
        </g>
    </g>
</svg>