<?xml version="1.0" encoding="UTF-8"?>
<svg width="35px" height="37px" viewBox="0 0 35 37" version="1.1" xmlns="http://www.w3.org/2000/svg" xmlns:xlink="http://www.w3.org/1999/xlink">
    <!-- Generator: Sketch 51.2 (57519) - http://www.bohemiancoding.com/sketch -->
    <title>Train/Dark</title>
    <desc>Created with Sketch.</desc>
    <defs></defs>
    <g id="06.-Annonces" stroke="none" stroke-width="1" fill="none" fill-rule="evenodd">
        <g id="06.1-RECHERCHE-ANNONCE-Détails---Desktop-HD" transform="translate(-262.000000, -1732.000000)" fill="#123F5C">
            <g id="Group-29" transform="translate(260.000000, 1564.000000)">
                <g id="Group-9" transform="translate(2.000000, 168.000000)">
                    <g id="Train/Dark">
                        <path d="M10.651413,37 C10.523587,37 10.3934783,36.967625 10.2747826,36.89825 C9.90956522,36.6870417 9.78326087,36.2160625 9.99173913,35.8468333 L13.0352174,30.451 C13.2436957,30.081 13.7093478,29.9515 14.0730435,30.16425 C14.4382609,30.3754583 14.5645652,30.8464375 14.356087,31.2156667 L11.3126087,36.6115 C11.1726087,36.8604792 10.9154348,37 10.651413,37" id="Fill-1"></path>
                        <path d="M24.348587,37 C24.0845652,37 23.8273913,36.8604792 23.6873913,36.6115 L20.643913,31.2156667 C20.4354348,30.8464375 20.5617391,30.3754583 20.9269565,30.16425 C21.291413,29.9515 21.7563043,30.081 21.9647826,30.451 L25.0082609,35.8468333 C25.2167391,36.2160625 25.0904348,36.6870417 24.7252174,36.89825 C24.6065217,36.967625 24.476413,37 24.348587,37" id="Fill-3"></path>
                        <path d="M12.173913,9.25 C10.9154348,9.25 9.89130435,10.2875417 9.89130435,11.5625 L9.89130435,27.75 C9.89130435,29.0249583 10.9154348,30.0625 12.173913,30.0625 L22.826087,30.0625 C24.0845652,30.0625 25.1086957,29.0249583 25.1086957,27.75 L25.1086957,11.5625 C25.1086957,10.2875417 24.0845652,9.25 22.826087,9.25 L12.173913,9.25 Z M22.826087,31.6041667 L12.173913,31.6041667 C10.0761957,31.6041667 8.36956522,29.8751875 8.36956522,27.75 L8.36956522,11.5625 C8.36956522,9.4373125 10.0761957,7.70833333 12.173913,7.70833333 L22.826087,7.70833333 C24.9238043,7.70833333 26.6304348,9.4373125 26.6304348,11.5625 L26.6304348,27.75 C26.6304348,29.8751875 24.9238043,31.6041667 22.826087,31.6041667 Z" id="Fill-5"></path>
                        <polygon id="Fill-7" points="9.13043478 22.3541667 25.8695652 22.3541667 25.8695652 20.8125 9.13043478 20.8125"></polygon>
                        <polygon id="Fill-9" points="11.4130435 25.4375 14.4565217 25.4375 14.4565217 23.8958333 11.4130435 23.8958333"></polygon>
                        <polygon id="Fill-10" points="20.5434783 25.4375 23.5869565 25.4375 23.5869565 23.8958333 20.5434783 23.8958333"></polygon>
                        <path d="M6.08809783,30.9063313 C5.90168478,30.9063313 5.71603261,30.8377271 5.56918478,30.6989771 C2.03038043,27.3574146 0.000380434783,22.6291229 0.000380434783,17.7289354 C0.000380434783,7.95322708 7.85027174,-0.00023125 17.5003804,-0.00023125 C27.1497283,-0.00023125 35.0003804,7.95322708 35.0003804,17.7289354 C35.0003804,22.6291229 32.9703804,27.3558729 29.432337,30.6982063 C29.1241848,30.9880396 28.6433152,30.9733938 28.3564674,30.6604354 C28.0703804,30.3490187 28.0871196,29.8618521 28.39375,29.5712479 C31.625163,26.5195188 33.4786413,22.2028521 33.4786413,17.7289354 C33.4786413,8.80345625 26.3104891,1.54143542 17.5003804,1.54143542 C8.68951087,1.54143542 1.52211957,8.80345625 1.52211957,17.7289354 C1.52211957,22.2028521 3.37559783,26.5202896 6.60701087,29.5720188 C6.91440217,29.8626229 6.9311413,30.3497896 6.64429348,30.6612062 C6.49516304,30.8246229 6.29201087,30.9063313 6.08809783,30.9063313" id="Fill-11"></path>
                        <polygon id="Fill-12" points="12.173913 34.6875 22.826087 34.6875 22.826087 33.1458333 12.173913 33.1458333"></polygon>
                        <polygon id="Fill-13" points="9.13043478 13.1041667 25.8695652 13.1041667 25.8695652 11.5625 9.13043478 11.5625"></polygon>
                        <polygon id="Fill-14" points="16.7391304 21.5833333 18.2608696 21.5833333 18.2608696 12.3333333 16.7391304 12.3333333"></polygon>
                    </g>
                </g>
            </g>
        </g>
    </g>
</svg>