<?xml version="1.0" encoding="UTF-8"?>
<svg width="16px" height="20px" viewBox="0 0 16 20" version="1.1" xmlns="http://www.w3.org/2000/svg" xmlns:xlink="http://www.w3.org/1999/xlink">
    <!-- Generator: Sketch 51.2 (57519) - http://www.bohemiancoding.com/sketch -->
    <title>Location/Dark</title>
    <desc>Created with Sketch.</desc>
    <defs></defs>
    <g id="06.-Annonces" stroke="none" stroke-width="1" fill="none" fill-rule="evenodd">
        <g id="06.1-RECHERCHE-ANNONCE-Détails---Desktop-HD" transform="translate(-260.000000, -1830.000000)" fill="#123F5C">
            <g id="Location/Dark" transform="translate(260.000000, 1830.000000)">
                <path d="M7.99797354,10.2667756 C6.80641711,10.2667756 5.83641993,9.2612907 5.83641993,8.02614074 C5.83641993,6.79099078 6.80641711,5.78550589 7.99797354,5.78550589 C9.18952997,5.78550589 10.1595272,6.79099078 10.1595272,8.02614074 C10.1595272,9.2612907 9.18952997,10.2667756 7.99797354,10.2667756 M7.99797354,4.66518847 C6.21108922,4.66518847 4.75564312,6.172949 4.75564312,8.02614074 C4.75564312,9.87933248 6.21108922,11.387093 7.99797354,11.387093 C9.78485787,11.387093 11.240304,9.87933248 11.240304,8.02614074 C11.240304,6.172949 9.78485787,4.66518847 7.99797354,4.66518847 M12.8920912,13.3635197 L7.99797354,18.4366904 L3.1038559,13.3635197 C0.405516465,10.5664605 0.405516465,6.01517097 3.1038559,3.2181118 C4.45302561,1.81864862 6.22459893,1.11938383 7.99797354,1.11938383 C9.77044751,1.11938383 11.5429215,1.81958221 12.8920912,3.2181118 C15.5904306,6.01517097 15.5904306,10.5664605 12.8920912,13.3635197 M13.6567408,2.42548722 C10.5359977,-0.80849574 5.45994934,-0.80849574 2.3392063,2.42548722 C-0.779735435,5.65947018 -0.779735435,10.9221613 2.3392063,14.1561442 L7.61609907,19.6251605 C7.72147481,19.735325 7.8601745,19.7894737 7.99797354,19.7894737 C8.13577259,19.7894737 8.27447228,19.735325 8.37984802,19.6251605 L13.6567408,14.1561442 C16.7756825,10.9221613 16.7756825,5.65947018 13.6567408,2.42548722" id="Location-point"></path>
            </g>
        </g>
    </g>
</svg>