<?xml version="1.0" encoding="UTF-8"?>
<svg width="18px" height="17px" viewBox="0 0 18 17" version="1.1" xmlns="http://www.w3.org/2000/svg" xmlns:xlink="http://www.w3.org/1999/xlink">
    <!-- Generator: Sketch 51.2 (57519) - http://www.bohemiancoding.com/sketch -->
    <title>Home</title>
    <desc>Created with Sketch.</desc>
    <defs></defs>
    <g id="06.-Annonces" stroke="none" stroke-width="1" fill="none" fill-rule="evenodd">
        <g id="06.1-RECHERCHE-ANNONCE-Détails---Desktop-HD" transform="translate(-462.000000, -790.000000)" fill="#123F5C">
            <g id="Group-31" transform="translate(462.000000, 789.000000)">
                <path d="M11.0105186,9.95128656 C11.0105186,11.0601283 10.1088418,11.9618052 9,11.9618052 C7.89115823,11.9618052 6.98948138,11.0601283 6.98948138,9.95128656 C6.98948138,8.84244479 7.89115823,7.94076794 9,7.94076794 C10.1088418,7.94076794 11.0105186,8.84244479 11.0105186,9.95128656 Z M5.96978845,9.95128656 C5.96978845,11.6221906 7.32909601,12.9806491 9,12.9806491 C10.670904,12.9806491 12.0293625,11.6221906 12.0293625,9.95128656 C12.0293625,8.28123161 10.670904,6.92192405 9,6.92192405 C7.32909601,6.92192405 5.96978845,8.28123161 5.96978845,9.95128656 Z M14.6902432,15.0191859 C14.6299616,15.7196411 14.0543148,16.2485909 13.3504634,16.2485909 L4.64868753,16.2485909 C3.94568524,16.2485909 3.36918941,15.7196411 3.30890781,15.0191859 L2.68741303,7.76671544 L8.04992807,2.41014367 C8.57378364,1.88713713 9.42621636,1.88713713 9.95007193,2.41014367 L15.312587,7.76671544 L14.6902432,15.0191859 Z M17.8503573,8.86197263 L10.670055,1.68931161 C9.7496993,0.770654031 8.2503007,0.769804994 7.32994505,1.68931161 L0.149642697,8.86197263 C-0.049880899,9.06149623 -0.049880899,9.38413013 0.149642697,9.58280469 C0.348317257,9.78147925 0.670951157,9.78232828 0.869625716,9.58280469 L1.74583147,8.70744797 L2.2943091,15.1066367 C2.39958963,16.3385887 3.41249027,17.2674348 4.64868753,17.2674348 L13.3504634,17.2674348 C14.5875097,17.2674348 15.5995613,16.3385887 15.7056909,15.1066367 L16.2541685,8.70744797 L17.1303743,9.58280469 C17.2297116,9.68214197 17.3604632,9.73223513 17.4903658,9.73223513 C17.6211174,9.73223513 17.75102,9.68214197 17.8503573,9.58280469 C18.0498809,9.38413013 18.0498809,9.06149623 17.8503573,8.86197263 Z" id="Home"></path>
            </g>
        </g>
    </g>
</svg>