<?xml version="1.0" encoding="UTF-8"?>
<svg width="73px" height="33px" viewBox="0 0 73 33" version="1.1" xmlns="http://www.w3.org/2000/svg" xmlns:xlink="http://www.w3.org/1999/xlink">
    <!-- Generator: Sketch 51.2 (57519) - http://www.bohemiancoding.com/sketch -->
    <title>Group 22</title>
    <desc>Created with Sketch.</desc>
    <defs></defs>
    <g id="06.-Annonces" stroke="none" stroke-width="1" fill="none" fill-rule="evenodd">
        <g id="06.1-RECHERCHE-ANNONCE-Détails---Desktop-HD" transform="translate(-315.000000, -1391.000000)" fill="#123F5C">
            <g id="Group-28" transform="translate(260.000000, 1310.000000)">
                <g id="Group-22" transform="translate(55.000000, 81.000000)">
                    <g id="Terrain/Dark" transform="translate(39.000000, 0.000000)">
                        <polygon id="Fill-1" points="20.5416667 33 21.9583333 33 21.9583333 16.1489362 20.5416667 16.1489362"></polygon>
                        <polygon id="Fill-2" points="20.7492083 25.0708723 17.915875 22.2623617 18.9174583 21.2695532 21.7507917 24.0780638"></polygon>
                        <polygon id="Fill-3" points="21.7507917 25.0708723 20.7492083 24.0780638 23.5825417 21.2695532 24.584125 22.2623617"></polygon>
                        <path d="M7.79166667,8.33264043 C5.58025,11.8467894 1.41666667,19.0274489 1.41666667,21.7657468 C1.41666667,25.2504064 4.27691667,28.0848957 7.79166667,28.0848957 C11.3064167,28.0848957 14.1666667,25.2504064 14.1666667,21.7657468 C14.1666667,19.0267468 10.0030833,11.8460872 7.79166667,8.33264043 M7.79166667,29.4891511 C3.495625,29.4891511 0,26.0248532 0,21.7657468 C0,17.7271085 6.90270833,7.09127872 7.19666667,6.64051277 C7.45733333,6.2403 8.126,6.2403 8.38666667,6.64051277 C8.680625,7.09127872 15.5833333,17.7271085 15.5833333,21.7657468 C15.5833333,26.0248532 12.0877083,29.4891511 7.79166667,29.4891511" id="Fill-4"></path>
                        <polygon id="Fill-6" points="7.08333333 33 8.5 33 8.5 15.4468085 7.08333333 15.4468085"></polygon>
                        <polygon id="Fill-8" points="7.290875 25.0708723 3.74920833 21.560234 4.75079167 20.5674255 8.29245833 24.0780638"></polygon>
                        <polygon id="Fill-9" points="8.29245833 21.560234 7.290875 20.5674255 10.1242083 17.7589149 11.1257917 18.7517234"></polygon>
                        <path d="M27.3707792,28.787234 L14.8750708,28.787234 L14.8750708,27.3829787 L27.3707792,27.3829787 C30.2303208,27.3829787 32.5564875,25.0771915 32.5564875,22.2427021 C32.5564875,19.4082128 30.2303208,17.1024255 27.3707792,17.1024255 C27.0095292,17.1024255 26.6681125,16.8349149 26.6284458,16.4789362 C26.3451125,13.931617 23.9828208,11.9361702 21.2500708,11.9361702 C18.6476542,11.9361702 16.6225292,13.8045319 16.3250292,16.4789362 L14.9161542,16.3244681 C15.2901542,12.9682979 17.9534875,10.5319149 21.2500708,10.5319149 C24.4793625,10.5319149 27.3020708,12.7695957 27.9395708,15.7262553 C31.3317792,16.0260638 33.9731542,18.8345745 33.9731542,22.2427021 C33.9731542,25.8509362 31.0116125,28.787234 27.3707792,28.787234" id="Fill-10"></path>
                        <path d="M20.1394042,10.1544511 C18.7524875,7.51655745 17.1403208,4.9158766 16.2917375,3.58394043 C15.4431542,4.9158766 13.8309875,7.51655745 12.4440708,10.1544511 L11.1874875,9.50498298 C13.2005708,5.67768511 15.6747792,1.93394043 15.6995708,1.89672766 C15.9616542,1.50072766 16.6218208,1.50072766 16.8839042,1.89672766 C16.9079875,1.93394043 19.3829042,5.67768511 21.3952792,9.50498298 L20.1394042,10.1544511 Z" id="Fill-11"></path>
                        <path d="M27.9791667,1.40425532 C26.6120833,1.40425532 25.5,2.50659574 25.5,3.86170213 C25.5,5.21680851 26.6120833,6.31914894 27.9791667,6.31914894 C29.34625,6.31914894 30.4583333,5.21680851 30.4583333,3.86170213 C30.4583333,2.50659574 29.34625,1.40425532 27.9791667,1.40425532 M27.9791667,7.72340426 C25.8307917,7.72340426 24.0833333,5.99125532 24.0833333,3.86170213 C24.0833333,1.73214894 25.8307917,0 27.9791667,0 C30.1275417,0 31.875,1.73214894 31.875,3.86170213 C31.875,5.99125532 30.1275417,7.72340426 27.9791667,7.72340426" id="Fill-12"></path>
                    </g>
                    <g id="House/Dark" transform="translate(0.000000, 3.000000)">
                        <path d="M6.71052632,12.5 L5.36842105,12.5 L5.36842105,3.5989011 C5.36842105,3.18870879 5.66838158,2.85714286 6.03947368,2.85714286 L10.0657895,2.85714286 C10.4368816,2.85714286 10.7368421,3.18870879 10.7368421,3.5989011 L10.7368421,8.04945055 L9.39473684,8.04945055 L9.39473684,4.34065934 L6.71052632,4.34065934 L6.71052632,12.5 Z" id="Fill-1"></path>
                        <path d="M29.0088193,30 L4.63328592,30 C4.24815249,30 3.93684211,29.690692 3.93684211,29.3080357 L3.93684211,18.9285714 L5.32972973,18.9285714 L5.32972973,28.6160714 L28.3123755,28.6160714 L28.3123755,18.9285714 L29.7052632,18.9285714 L29.7052632,29.3080357 C29.7052632,29.690692 29.3939528,30 29.0088193,30" id="Fill-3"></path>
                        <path d="M17.3693169,5.81632653 C17.5467109,5.81632653 17.7241048,5.88757653 17.8592291,6.02934949 L29.8423292,18.6020663 L31.6342853,16.7219388 L17.3693169,1.75507653 L3.10434849,16.7219388 L4.89630459,18.6020663 L16.8794047,6.02934949 C17.014529,5.88757653 17.191923,5.81632653 17.3693169,5.81632653 M29.8423292,20.3571429 C29.6649353,20.3571429 29.4875413,20.2858929 29.352417,20.1441199 L17.3693169,7.57140306 L5.3862168,20.1441199 C5.11527525,20.4283929 4.67733393,20.4283929 4.40639239,20.1441199 L1.63461187,17.2359566 C1.36367032,16.9516837 1.36367032,16.4921939 1.63461187,16.2079209 L16.8794047,0.213022959 C17.1503462,-0.07125 17.5882876,-0.07125 17.8592291,0.213022959 L33.1040219,16.2079209 C33.3749635,16.4921939 33.3749635,16.9516837 33.1040219,17.2359566 L30.3322414,20.1441199 C30.1971171,20.2858929 30.0197232,20.3571429 29.8423292,20.3571429" id="Fill-5"></path>
                        <path d="M9.59157895,28.5714286 L13.6715789,28.5714286 L13.6715789,19.2857143 L9.59157895,19.2857143 L9.59157895,28.5714286 Z M14.3515789,30 L8.91157895,30 C8.53553895,30 8.23157895,29.6807143 8.23157895,29.2857143 L8.23157895,18.5714286 C8.23157895,18.1764286 8.53553895,17.8571429 8.91157895,17.8571429 L14.3515789,17.8571429 C14.7276189,17.8571429 15.0315789,18.1764286 15.0315789,18.5714286 L15.0315789,29.2857143 C15.0315789,29.6807143 14.7276189,30 14.3515789,30 Z" id="Fill-8"></path>
                        <path d="M18.9087719,23.2857143 L24.3964912,23.2857143 L24.3964912,19.2142857 L18.9087719,19.2142857 L18.9087719,23.2857143 Z M25.0824561,24.6428571 L18.222807,24.6428571 C17.8434684,24.6428571 17.5368421,24.3395357 17.5368421,23.9642857 L17.5368421,18.5357143 C17.5368421,18.1604643 17.8434684,17.8571429 18.222807,17.8571429 L25.0824561,17.8571429 C25.4617947,17.8571429 25.7684211,18.1604643 25.7684211,18.5357143 L25.7684211,23.9642857 C25.7684211,24.3395357 25.4617947,24.6428571 25.0824561,24.6428571 Z" id="Fill-10"></path>
                        <polygon id="Fill-11" points="0 30 34 30 34 28.5714286 0 28.5714286"></polygon>
                    </g>
                </g>
            </g>
        </g>
    </g>
</svg>