<?xml version="1.0" encoding="UTF-8"?>
<svg width="42px" height="44px" viewBox="0 0 42 44" version="1.1" xmlns="http://www.w3.org/2000/svg" xmlns:xlink="http://www.w3.org/1999/xlink">
    <!-- Generator: Sketch 51.2 (57519) - http://www.bohemiancoding.com/sketch -->
    <title>Superficie</title>
    <desc>Created with Sketch.</desc>
    <defs>
        <polygon id="path-1" points="0 0 42 0 42 43.9998 0 43.9998"></polygon>
    </defs>
    <g id="06.-Annonces" stroke="none" stroke-width="1" fill="none" fill-rule="evenodd">
        <g id="06.1-RECHERCHE-ANNONCE-Détails---Desktop-HD" transform="translate(-472.000000, -864.000000)">
            <g id="Group-26" transform="translate(260.000000, 835.000000)">
                <g id="Superficie" transform="translate(212.000000, 29.000000)">
                    <g id="Group-3">
                        <mask id="mask-2" fill="white">
                            <use xlink:href="#path-1"></use>
                        </mask>
                        <g id="Clip-2"></g>
                        <path d="M27.644,11.8428 C28.062,11.6118 28.65,11.5908 29.217,11.7898 C29.48,11.8818 29.644,12.0338 29.746,12.2858 C29.969,12.8358 29.814,13.6448 29.665,13.9438 C29.444,14.3848 29.024,14.7808 28.01,15.7128 C27.359,16.3098 26.469,17.1278 25.296,18.2898 C25.106,18.4778 25,18.7338 25,18.9998 L25,19.9998 C25,20.5518 25.448,20.9998 26,20.9998 L31,20.9998 C31.552,20.9998 32,20.5518 32,19.9998 L32,17.9998 L30,17.9998 L30,18.9998 L27.429,18.9998 C28.227,18.2278 28.866,17.6408 29.362,17.1858 C30.457,16.1808 31.06,15.6268 31.454,14.8388 C31.784,14.1788 32.095,12.7538 31.598,11.5328 C31.279,10.7468 30.683,10.1818 29.875,9.9008 C28.768,9.5138 27.602,9.5828 26.68,10.0908 C25.822,10.5628 25.239,11.3688 24.993,12.4228 L26.94,12.8768 C27.056,12.3848 27.292,12.0368 27.644,11.8428 Z M13,21.5568 L13,20.9998 L11,20.9998 L11,30.9998 L13,30.9998 L13,24.9998 C13,23.8968 13.897,22.9998 15,22.9998 C16.103,22.9998 17,23.8968 17,24.9998 L17,30.9998 L19,30.9998 L19,24.9998 C19,23.8968 19.897,22.9998 21,22.9998 C22.103,22.9998 23,23.8968 23,24.9998 L23,30.9998 L25,30.9998 L25,24.9998 C25,22.7948 23.206,20.9998 21,20.9998 C19.8,20.9998 18.734,21.5428 18,22.3828 C17.266,21.5428 16.2,20.9998 15,20.9998 C14.268,20.9998 13.591,21.2118 13,21.5568 Z M40,33.9998 L31,33.9998 C30.448,33.9998 30,34.4478 30,34.9998 L30,41.9998 L2,41.9998 L2,10.9998 L14,10.9998 C14.552,10.9998 15,10.5518 15,9.9998 L15,1.9998 L40,1.9998 L40,33.9998 Z M41,-0.0002 L14,-0.0002 C13.448,-0.0002 13,0.4478 13,0.9998 L13,8.9998 L1,8.9998 C0.448,8.9998 0,9.4478 0,9.9998 L0,42.9998 C0,43.5518 0.448,43.9998 1,43.9998 L31,43.9998 C31.552,43.9998 32,43.5518 32,42.9998 L32,35.9998 L41,35.9998 C41.552,35.9998 42,35.5518 42,34.9998 L42,0.9998 C42,0.4478 41.552,-0.0002 41,-0.0002 Z" id="Fill-1" fill="#8FBA0C" mask="url(#mask-2)"></path>
                    </g>
                </g>
            </g>
        </g>
    </g>
</svg>