<?xml version="1.0" encoding="UTF-8"?>
<svg width="26px" height="32px" viewBox="0 0 26 32" version="1.1" xmlns="http://www.w3.org/2000/svg" xmlns:xlink="http://www.w3.org/1999/xlink">
    <!-- Generator: Sketch 51.2 (57519) - http://www.bohemiancoding.com/sketch -->
    <title>Pictos/Download/White</title>
    <desc>Created with Sketch.</desc>
    <defs></defs>
    <g id="Organisms" stroke="none" stroke-width="1" fill="none" fill-rule="evenodd">
        <g id="Footer/Desktop" transform="translate(-165.000000, -501.000000)" fill="#FFFFFF">
            <g id="FOOTER">
                <g id="Group-4" transform="translate(165.000000, 499.000000)">
                    <g id="Group-9">
                        <g id="Download/White" transform="translate(0.000000, 2.000000)">
                            <path d="M16.7567416,18.0180155 C17.1047203,18.3709565 17.1017334,18.9416697 16.7492743,19.2931088 L13.4561713,22.5687021 C13.2814352,22.7429198 13.0544277,22.8300286 12.8259267,22.8300286 C12.5959322,22.8300286 12.3689246,22.7414179 12.1926951,22.5656983 L8.93543539,19.2886032 C8.58446977,18.9371641 8.58446977,18.3664509 8.93543539,18.0150117 C9.28490754,17.6620707 9.85093295,17.6620707 10.2004051,18.0150117 L11.9477659,19.7707057 L11.9477659,12.917642 C11.9477659,12.4190189 12.348016,12.0150141 12.8438483,12.0150141 C13.3396806,12.0150141 13.7384373,12.4190189 13.7384373,12.917642 L13.7384373,19.7511813 L15.488785,18.0105061 C15.8412441,17.6620707 16.4087629,17.6650744 16.7567416,18.0180155 Z M23.8955317,26.4345328 C23.8955317,28.4215158 22.2870637,30.0375352 20.311202,30.0375352 L5.37649464,30.0375352 C3.40063286,30.0375352 1.79067141,28.4215158 1.79067141,26.4345328 L1.79067141,5.40825821 C1.79067141,3.41977338 3.40063286,1.80375399 5.37649464,1.80375399 L15.6829362,1.80375399 C16.2414942,1.80375399 16.7671959,2.02152612 17.1614722,2.41952346 L23.2832087,8.57421442 C23.677485,8.97221176 23.8955317,9.4993705 23.8955317,10.0610724 L23.8955317,26.4345328 Z M24.5496719,7.29912105 L18.4294288,1.14443009 C17.6961347,0.407008602 16.7208983,0 15.6829362,0 L5.37649464,0 C2.4134487,0 0,2.42703284 0,5.40825821 L0,26.4345328 C0,29.4142563 2.4134487,31.8412892 5.37649464,31.8412892 L20.311202,31.8412892 C23.2742479,31.8412892 25.6862031,29.4142563 25.6862031,26.4345328 L25.6862031,10.0610724 C25.6862031,9.01726806 25.2844595,8.03654254 24.5496719,7.29912105 Z" id="File-download"></path>
                        </g>
                    </g>
                </g>
            </g>
        </g>
    </g>
</svg>