<?xml version="1.0" encoding="UTF-8"?>
<svg width="30px" height="20px" viewBox="0 0 30 20" version="1.1" xmlns="http://www.w3.org/2000/svg" xmlns:xlink="http://www.w3.org/1999/xlink">
    <!-- Generator: Sketch 51.2 (57519) - http://www.bohemiancoding.com/sketch -->
    <title>Pictos/Simulateur</title>
    <desc>Created with Sketch.</desc>
    <defs></defs>
    <g id="06.-Annonces" stroke="none" stroke-width="1" fill="none" fill-rule="evenodd">
        <g id="06.0-RECHERCHE-ANNONCE-Filtrage-BUDGET---Desktop-HD-Copy" transform="translate(-1120.000000, -25.000000)" fill="#123F5C">
            <g id="Group-3" transform="translate(1096.000000, 25.000000)">
                <g id="Pictos/Simulateur" transform="translate(24.000000, 0.000000)">
                    <path d="M25.8535396,18.1997234 L22.2340441,18.1997234 L22.2340441,9.87984983 C22.2340441,9.5925542 22.4654333,9.35855776 22.7511149,9.35855776 L25.3364688,9.35855776 C25.6221505,9.35855776 25.8535396,9.5925542 25.8535396,9.87984983 L25.8535396,18.1997234 Z M16.8048008,18.1997234 L13.1853052,18.1997234 L13.1853052,2.07996839 C13.1853052,1.79267275 13.4166944,1.55867631 13.702376,1.55867631 L16.28773,1.55867631 C16.5734116,1.55867631 16.8048008,1.79267275 16.8048008,2.07996839 L16.8048008,18.1997234 Z M7.75606189,18.1997234 L4.13656634,18.1997234 L4.13656634,8.57986959 C4.13656634,8.29257396 4.36795552,8.05857752 4.65363713,8.05857752 L7.2389911,8.05857752 C7.52467271,8.05857752 7.75606189,8.29257396 7.75606189,8.57986959 L7.75606189,18.1997234 Z M29.2144998,18.1997234 L27.404752,18.1997234 L27.404752,9.87984983 C27.404752,8.73196728 26.4766099,7.79988145 25.3364688,7.79988145 L22.7511149,7.79988145 C21.6109738,7.79988145 20.6828317,8.73196728 20.6828317,9.87984983 L20.6828317,18.1997234 L18.3560131,18.1997234 L18.3560131,2.07996839 C18.3560131,0.932085833 17.4278711,0 16.28773,0 L13.702376,0 C12.5622349,0 11.6340928,0.932085833 11.6340928,2.07996839 L11.6340928,18.1997234 L9.30727427,18.1997234 L9.30727427,8.57986959 C9.30727427,7.43198704 8.37913219,6.49990121 7.2389911,6.49990121 L4.65363713,6.49990121 C3.51349604,6.49990121 2.58535396,7.43198704 2.58535396,8.57986959 L2.58535396,18.1997234 L0.775606189,18.1997234 C0.347730108,18.1997234 0,18.5481181 0,18.9797115 C0,19.411305 0.347730108,19.7583997 0.775606189,19.7583997 L29.2144998,19.7583997 C29.6436685,19.7583997 29.990106,19.411305 29.990106,18.9797115 C29.990106,18.5481181 29.6436685,18.1997234 29.2144998,18.1997234 Z" id="Bar-graph"></path>
                </g>
            </g>
        </g>
    </g>
</svg>