<?xml version="1.0" encoding="UTF-8"?>
<svg width="16px" height="21px" viewBox="0 0 16 21" version="1.1" xmlns="http://www.w3.org/2000/svg" xmlns:xlink="http://www.w3.org/1999/xlink">
    <!-- Generator: Sketch 51.2 (57519) - http://www.bohemiancoding.com/sketch -->
    <title>Shape</title>
    <desc>Created with Sketch.</desc>
    <defs></defs>
    <g id="06.-Annonces" stroke="none" stroke-width="1" fill="none" fill-rule="evenodd">
        <g id="06.1-RECHERCHE-ANNONCE-Détails---Desktop-HD" transform="translate(-1325.000000, -186.000000)" fill="#123F5C" fill-rule="nonzero">
            <g id="Group-35" transform="translate(1310.000000, 174.000000)">
                <path d="M20.1834975,16.3529534 L22.1289541,14.4072617 L22.1289541,25.8071489 C22.1289541,26.1965692 22.4445796,26.5121948 22.834,26.5121948 C23.2234204,26.5121948 23.5390459,26.1965692 23.5390459,25.8071489 L23.5390459,14.4072617 L25.4845025,16.3529534 C25.6222215,16.4906723 25.8027133,16.5595318 25.98297,16.5595318 C26.1632267,16.5595318 26.3437185,16.4906723 26.4814375,16.3531884 C26.7568754,16.0777505 26.7568754,15.6314564 26.4814375,15.3560185 L23.3331725,12.2072835 C23.2055592,12.0792002 23.0290627,12 22.834,12 C22.6389373,12 22.4624408,12.0792002 22.3348275,12.2072835 L19.1863275,15.3557835 C18.9108896,15.6309864 18.9108896,16.0775154 19.1863275,16.3529534 C19.4617655,16.6281563 19.9080595,16.6281563 20.1834975,16.3529534 Z M29.0228929,18.5510515 L25.1547761,18.5510515 C24.7653557,18.5510515 24.4497302,18.866677 24.4497302,19.2560974 C24.4497302,19.6455177 24.7653557,19.9611433 25.1547761,19.9611433 L29.0228929,19.9611433 C29.1526213,19.9611433 29.2579082,20.0666651 29.2579082,20.1961586 L29.2579082,30.7231989 C29.2579082,30.8526923 29.1526213,30.9582142 29.0228929,30.9582142 L16.6451071,30.9582142 C16.5153787,30.9582142 16.4100918,30.8526923 16.4100918,30.7231989 L16.4100918,20.1961586 C16.4100918,20.0666651 16.5153787,19.9611433 16.6451071,19.9611433 L20.5132239,19.9611433 C20.9026443,19.9611433 21.2182698,19.6455177 21.2182698,19.2560974 C21.2182698,18.866677 20.9026443,18.5510515 20.5132239,18.5510515 L16.6451071,18.5510515 C15.7381831,18.5510515 15,19.2889995 15,20.1961586 L15,30.7231989 C15,31.630358 15.7381831,32.368306 16.6451071,32.368306 L29.0228929,32.368306 C29.9298169,32.368306 30.668,31.630358 30.668,30.7231989 L30.668,20.1961586 C30.668,19.2889995 29.9298169,18.5510515 29.0228929,18.5510515 Z" id="Shape"></path>
            </g>
        </g>
    </g>
</svg>