<?xml version="1.0" encoding="UTF-8"?>
<svg width="18px" height="23px" viewBox="0 0 18 23" version="1.1" xmlns="http://www.w3.org/2000/svg" xmlns:xlink="http://www.w3.org/1999/xlink">
    <!-- Generator: Sketch 51.2 (57519) - http://www.bohemiancoding.com/sketch -->
    <title>File options</title>
    <desc>Created with Sketch.</desc>
    <defs></defs>
    <g id="06.-Annonces" stroke="none" stroke-width="1" fill="none" fill-rule="evenodd">
        <g id="06.1-RECHERCHE-ANNONCE-Détails---Desktop-HD" transform="translate(-260.000000, -966.000000)" fill="#123F5C">
            <g id="Group-27" transform="translate(260.000000, 957.000000)">
                <path d="M6.3956044,23.9942439 C6.3956044,24.4411303 6.03349032,24.8032444 5.58765044,24.8032444 C5.140764,24.8032444 4.77864992,24.4411303 4.77864992,23.9942439 C4.77864992,23.5473574 5.140764,23.1852433 5.58765044,23.1852433 C6.03349032,23.1852433 6.3956044,23.5473574 6.3956044,23.9942439 Z M6.3956044,20.9434851 C6.3956044,21.3903715 6.03349032,21.7524856 5.58765044,21.7524856 C5.140764,21.7524856 4.77864992,21.3903715 4.77864992,20.9434851 C4.77864992,20.4976452 5.140764,20.1344846 5.58765044,20.1344846 C6.03349032,20.1344846 6.3956044,20.4976452 6.3956044,20.9434851 Z M6.3956044,17.8937729 C6.3956044,18.3406593 6.03349032,18.7027734 5.58765044,18.7027734 C5.140764,18.7027734 4.77864992,18.3406593 4.77864992,17.8937729 C4.77864992,17.4468864 5.140764,17.0847724 5.58765044,17.0847724 C6.03349032,17.0847724 6.3956044,17.4468864 6.3956044,17.8937729 Z M13.0570382,24.0277342 C13.0570382,24.3751962 12.7765568,24.6556777 12.4301413,24.6556777 L7.92987964,24.6556777 C7.58346415,24.6556777 7.30088959,24.3751962 7.30088959,24.0277342 C7.30088959,23.6813187 7.58346415,23.3997907 7.92987964,23.3997907 L12.4301413,23.3997907 C12.7765568,23.3997907 13.0570382,23.6813187 13.0570382,24.0277342 Z M13.0570382,20.9434851 C13.0570382,21.2909471 12.7765568,21.5724751 12.4301413,21.5724751 L7.92987964,21.5724751 C7.58346415,21.5724751 7.30088959,21.2909471 7.30088959,20.9434851 C7.30088959,20.5970696 7.58346415,20.3155416 7.92987964,20.3155416 L12.4301413,20.3155416 C12.7765568,20.3155416 13.0570382,20.5970696 13.0570382,20.9434851 Z M13.0570382,17.8602826 C13.0570382,18.2066981 12.7765568,18.4882261 12.4301413,18.4882261 L7.92987964,18.4882261 C7.58346415,18.4882261 7.30088959,18.2066981 7.30088959,17.8602826 C7.30088959,17.5128205 7.58346415,17.2323391 7.92987964,17.2323391 L12.4301413,17.2323391 C12.7765568,17.2323391 13.0570382,17.5128205 13.0570382,17.8602826 Z M16.7451596,27.4196756 C16.7451596,28.8042909 15.618001,29.9314495 14.2323391,29.9314495 L3.76661434,29.9314495 C2.38199895,29.9314495 1.2548404,28.8042909 1.2548404,27.4196756 L1.2548404,12.7676609 C1.2548404,11.3830455 2.38199895,10.255887 3.76661434,10.255887 L10.9900576,10.255887 C11.3814757,10.255887 11.7488226,10.4086866 12.0261643,10.6849817 L16.3160649,14.9738357 C16.5913134,15.2511774 16.7451596,15.6195709 16.7451596,16.010989 L16.7451596,27.4196756 Z M17.2025118,14.0863422 L12.9147043,9.79748823 C12.3997907,9.28257457 11.7163789,9 10.9900576,9 L3.76661434,9 C1.69021455,9 0,10.6902145 0,12.7676609 L0,27.4196756 C0,29.4971219 1.69021455,31.1873365 3.76661434,31.1873365 L14.2323391,31.1873365 C16.3097855,31.1873365 18,29.4971219 18,27.4196756 L18,16.010989 C18,15.2836211 17.7174254,14.6002093 17.2025118,14.0863422 Z" id="File-options"></path>
            </g>
        </g>
    </g>
</svg>