<?xml version="1.0" encoding="UTF-8"?>
<svg width="19px" height="12px" viewBox="0 0 19 12" version="1.1" xmlns="http://www.w3.org/2000/svg" xmlns:xlink="http://www.w3.org/1999/xlink">
    <!-- Generator: Sketch 51.2 (57519) - http://www.bohemiancoding.com/sketch -->
    <title>Arrow/Long/Blue</title>
    <desc>Created with Sketch.</desc>
    <defs></defs>
    <g id="06.-Annonces" stroke="none" stroke-width="1" fill="none" fill-rule="evenodd">
        <g id="06.1-RECHERCHE-ANNONCE-Détails---Desktop-HD" transform="translate(-165.000000, -117.000000)" fill="#123F5C" fill-rule="nonzero">
            <g id="Group-34" transform="translate(165.000000, 110.000000)">
                <g id="Group-33">
                    <g id="Arrow/Long/Dark" transform="translate(0.000000, 7.000000)">
                        <path d="M18.8659896,5.994522 C18.8659896,6.27154527 18.6330287,6.49611701 18.3456568,6.49611701 L1.99680169,6.49611701 L7.2521625,11.1408868 C7.45174476,11.3393315 7.45174476,11.654707 7.2521625,11.8531517 C7.04630463,12.0455468 6.71914786,12.0455468 6.51328999,11.8531517 L0.269296945,6.33560661 C0.228936663,6.2989464 0.197026028,6.25451312 0.175637049,6.2051919 C0.120134889,6.07678358 0.120134889,5.93232422 0.175637049,5.8039159 C0.197026028,5.75459468 0.228936663,5.7101614 0.269296945,5.67350119 L6.51328999,0.155956091 C6.6109911,0.0609978103 6.743986,0.00758512791 6.88272625,0.00758512791 C7.02146649,0.00758512791 7.15446139,0.0609978103 7.2521625,0.155956091 C7.45174476,0.354400797 7.45174476,0.669776298 7.2521625,0.868221004 L2.04883496,5.51299079 L18.3456568,5.51299079 C18.625093,5.51277521 18.8548122,5.72536415 18.8659896,5.994522 Z" id="Shape"></path>
                    </g>
                </g>
            </g>
        </g>
    </g>
</svg>