<?xml version="1.0" encoding="UTF-8"?>
<svg width="25px" height="26px" viewBox="0 0 25 26" version="1.1" xmlns="http://www.w3.org/2000/svg" xmlns:xlink="http://www.w3.org/1999/xlink">
    <!-- Generator: Sketch 51.2 (57519) - http://www.bohemiancoding.com/sketch -->
    <title>Call</title>
    <desc>Created with Sketch.</desc>
    <defs></defs>
    <g id="06.-Annonces" stroke="none" stroke-width="1" fill="none" fill-rule="evenodd">
        <g id="06.1-RECHERCHE-ANNONCE-Détails---Desktop-HD" transform="translate(-890.000000, -1158.000000)" fill="#FFFFFF">
            <g id="Group-16" transform="translate(850.000000, 1143.000000)">
                <g id="Group-14" transform="translate(40.000000, 13.000000)">
                    <g id="Group-13">
                        <g id="Group-32">
                            <path d="M23.5088722,25.7360377 C23.5088722,26.0291509 23.3038421,26.280566 23.0317113,26.3210377 C20.553954,26.6877358 18.0364332,26.5638679 15.5860132,25.9543396 C8.5565883,24.1907547 3.15125006,18.5001887 1.81420548,11.4507547 C1.59674934,10.3567925 1.49112779,9.24075472 1.49112779,8.03886792 C1.49112779,6.62481132 1.64893881,5.23160377 1.96083304,3.89849057 C2.01923555,3.65075472 2.26402903,3.47169811 2.54485809,3.47169811 L6.79084448,3.47169811 C7.86072866,3.47169811 8.73179581,4.33018868 8.73179581,5.38735849 L8.73179581,7.55320755 L6.21303246,8.61773585 C5.32456882,8.99301887 4.80267409,9.92754717 4.97291118,10.84 C6.01918584,16.4790566 10.3012078,21.1541509 15.8829962,22.749717 C16.9081465,23.0440566 18.0003976,22.5424528 18.4166708,21.5858491 L19.3734778,19.3819811 L21.5679209,19.3819811 C22.6378051,19.3819811 23.5088722,20.2416981 23.5088722,21.2976415 L23.5088722,25.7360377 Z M21.5679209,17.910283 L18.8814056,17.910283 C18.5831801,17.910283 18.3135345,18.0856604 18.1954869,18.3554717 L17.0460758,21.0069811 C16.9267856,21.2829245 16.6061932,21.4239623 16.2980267,21.3368868 C11.254287,19.8946226 7.38481038,15.6696226 6.43918684,10.5738679 C6.394453,10.3310377 6.546051,10.0771698 6.80078533,9.9704717 L9.77061484,8.71584906 C10.0452309,8.59933962 10.2229236,8.33320755 10.2229236,8.03886792 L10.2229236,5.38735849 C10.2229236,3.5195283 8.68333416,2 6.79084448,2 L2.54485809,2 C1.57686764,2 0.720711765,2.65981132 0.508226055,3.56858491 C0.171479696,5.00839623 0,6.51320755 0,8.03886792 C0,9.33764151 0.114319797,10.5456604 0.349172424,11.7279245 C1.79183856,19.3316981 7.62836125,25.4760377 15.2194443,27.3806604 C16.8696257,27.7915094 18.5533575,28 20.2246633,28 C21.2299319,28 22.2476266,27.9239623 23.2516527,27.775566 C24.2482231,27.6283962 25,26.7527358 25,25.7360377 L25,21.2976415 C25,19.4298113 23.4604106,17.910283 21.5679209,17.910283 Z" id="Call"></path>
                        </g>
                    </g>
                </g>
            </g>
        </g>
    </g>
</svg>