<?xml version="1.0" encoding="UTF-8"?>
<svg width="34px" height="30px" viewBox="0 0 34 30" version="1.1" xmlns="http://www.w3.org/2000/svg" xmlns:xlink="http://www.w3.org/1999/xlink">
    <!-- Generator: Sketch 51.2 (57519) - http://www.bohemiancoding.com/sketch -->
    <title>House Copy 2</title>
    <desc>Created with Sketch.</desc>
    <defs></defs>
    <g id="06.-Annonces" stroke="none" stroke-width="1" fill="none" fill-rule="evenodd">
        <g id="06.1-RECHERCHE-ANNONCE-Détails---Desktop-HD" transform="translate(-513.000000, -1394.000000)" fill="#123F5C">
            <g id="Group-28" transform="translate(260.000000, 1310.000000)">
                <g id="House/Dark" transform="translate(253.000000, 84.000000)">
                    <path d="M6.71052632,12.5 L5.36842105,12.5 L5.36842105,3.5989011 C5.36842105,3.18870879 5.66838158,2.85714286 6.03947368,2.85714286 L10.0657895,2.85714286 C10.4368816,2.85714286 10.7368421,3.18870879 10.7368421,3.5989011 L10.7368421,8.04945055 L9.39473684,8.04945055 L9.39473684,4.34065934 L6.71052632,4.34065934 L6.71052632,12.5 Z" id="Fill-1"></path>
                    <path d="M29.0088193,30 L4.63328592,30 C4.24815249,30 3.93684211,29.690692 3.93684211,29.3080357 L3.93684211,18.9285714 L5.32972973,18.9285714 L5.32972973,28.6160714 L28.3123755,28.6160714 L28.3123755,18.9285714 L29.7052632,18.9285714 L29.7052632,29.3080357 C29.7052632,29.690692 29.3939528,30 29.0088193,30" id="Fill-3"></path>
                    <path d="M17.3693169,5.81632653 C17.5467109,5.81632653 17.7241048,5.88757653 17.8592291,6.02934949 L29.8423292,18.6020663 L31.6342853,16.7219388 L17.3693169,1.75507653 L3.10434849,16.7219388 L4.89630459,18.6020663 L16.8794047,6.02934949 C17.014529,5.88757653 17.191923,5.81632653 17.3693169,5.81632653 M29.8423292,20.3571429 C29.6649353,20.3571429 29.4875413,20.2858929 29.352417,20.1441199 L17.3693169,7.57140306 L5.3862168,20.1441199 C5.11527525,20.4283929 4.67733393,20.4283929 4.40639239,20.1441199 L1.63461187,17.2359566 C1.36367032,16.9516837 1.36367032,16.4921939 1.63461187,16.2079209 L16.8794047,0.213022959 C17.1503462,-0.07125 17.5882876,-0.07125 17.8592291,0.213022959 L33.1040219,16.2079209 C33.3749635,16.4921939 33.3749635,16.9516837 33.1040219,17.2359566 L30.3322414,20.1441199 C30.1971171,20.2858929 30.0197232,20.3571429 29.8423292,20.3571429" id="Fill-5"></path>
                    <path d="M9.59157895,28.5714286 L13.6715789,28.5714286 L13.6715789,19.2857143 L9.59157895,19.2857143 L9.59157895,28.5714286 Z M14.3515789,30 L8.91157895,30 C8.53553895,30 8.23157895,29.6807143 8.23157895,29.2857143 L8.23157895,18.5714286 C8.23157895,18.1764286 8.53553895,17.8571429 8.91157895,17.8571429 L14.3515789,17.8571429 C14.7276189,17.8571429 15.0315789,18.1764286 15.0315789,18.5714286 L15.0315789,29.2857143 C15.0315789,29.6807143 14.7276189,30 14.3515789,30 Z" id="Fill-8"></path>
                    <path d="M18.9087719,23.2857143 L24.3964912,23.2857143 L24.3964912,19.2142857 L18.9087719,19.2142857 L18.9087719,23.2857143 Z M25.0824561,24.6428571 L18.222807,24.6428571 C17.8434684,24.6428571 17.5368421,24.3395357 17.5368421,23.9642857 L17.5368421,18.5357143 C17.5368421,18.1604643 17.8434684,17.8571429 18.222807,17.8571429 L25.0824561,17.8571429 C25.4617947,17.8571429 25.7684211,18.1604643 25.7684211,18.5357143 L25.7684211,23.9642857 C25.7684211,24.3395357 25.4617947,24.6428571 25.0824561,24.6428571 Z" id="Fill-10"></path>
                    <polygon id="Fill-11" points="0 30 34 30 34 28.5714286 0 28.5714286"></polygon>
                </g>
            </g>
        </g>
    </g>
</svg>