<?xml version="1.0" encoding="UTF-8"?>
<svg width="34px" height="33px" viewBox="0 0 34 33" version="1.1" xmlns="http://www.w3.org/2000/svg" xmlns:xlink="http://www.w3.org/1999/xlink">
    <!-- Generator: Sketch 51.2 (57519) - http://www.bohemiancoding.com/sketch -->
    <title>Terrain/Dark</title>
    <desc>Created with Sketch.</desc>
    <defs></defs>
    <g id="06.-Annonces" stroke="none" stroke-width="1" fill="none" fill-rule="evenodd">
        <g id="06.1-RECHERCHE-ANNONCE-Détails---Desktop-HD" transform="translate(-695.000000, -1391.000000)" fill="#123F5C">
            <g id="Group-28" transform="translate(260.000000, 1310.000000)">
                <g id="Terrain/Dark" transform="translate(435.000000, 81.000000)">
                    <polygon id="Fill-1" points="20.5416667 33 21.9583333 33 21.9583333 16.1489362 20.5416667 16.1489362"></polygon>
                    <polygon id="Fill-2" points="20.7492083 25.0708723 17.915875 22.2623617 18.9174583 21.2695532 21.7507917 24.0780638"></polygon>
                    <polygon id="Fill-3" points="21.7507917 25.0708723 20.7492083 24.0780638 23.5825417 21.2695532 24.584125 22.2623617"></polygon>
                    <path d="M7.79166667,8.33264043 C5.58025,11.8467894 1.41666667,19.0274489 1.41666667,21.7657468 C1.41666667,25.2504064 4.27691667,28.0848957 7.79166667,28.0848957 C11.3064167,28.0848957 14.1666667,25.2504064 14.1666667,21.7657468 C14.1666667,19.0267468 10.0030833,11.8460872 7.79166667,8.33264043 M7.79166667,29.4891511 C3.495625,29.4891511 0,26.0248532 0,21.7657468 C0,17.7271085 6.90270833,7.09127872 7.19666667,6.64051277 C7.45733333,6.2403 8.126,6.2403 8.38666667,6.64051277 C8.680625,7.09127872 15.5833333,17.7271085 15.5833333,21.7657468 C15.5833333,26.0248532 12.0877083,29.4891511 7.79166667,29.4891511" id="Fill-4"></path>
                    <polygon id="Fill-6" points="7.08333333 33 8.5 33 8.5 15.4468085 7.08333333 15.4468085"></polygon>
                    <polygon id="Fill-8" points="7.290875 25.0708723 3.74920833 21.560234 4.75079167 20.5674255 8.29245833 24.0780638"></polygon>
                    <polygon id="Fill-9" points="8.29245833 21.560234 7.290875 20.5674255 10.1242083 17.7589149 11.1257917 18.7517234"></polygon>
                    <path d="M27.3707792,28.787234 L14.8750708,28.787234 L14.8750708,27.3829787 L27.3707792,27.3829787 C30.2303208,27.3829787 32.5564875,25.0771915 32.5564875,22.2427021 C32.5564875,19.4082128 30.2303208,17.1024255 27.3707792,17.1024255 C27.0095292,17.1024255 26.6681125,16.8349149 26.6284458,16.4789362 C26.3451125,13.931617 23.9828208,11.9361702 21.2500708,11.9361702 C18.6476542,11.9361702 16.6225292,13.8045319 16.3250292,16.4789362 L14.9161542,16.3244681 C15.2901542,12.9682979 17.9534875,10.5319149 21.2500708,10.5319149 C24.4793625,10.5319149 27.3020708,12.7695957 27.9395708,15.7262553 C31.3317792,16.0260638 33.9731542,18.8345745 33.9731542,22.2427021 C33.9731542,25.8509362 31.0116125,28.787234 27.3707792,28.787234" id="Fill-10"></path>
                    <path d="M20.1394042,10.1544511 C18.7524875,7.51655745 17.1403208,4.9158766 16.2917375,3.58394043 C15.4431542,4.9158766 13.8309875,7.51655745 12.4440708,10.1544511 L11.1874875,9.50498298 C13.2005708,5.67768511 15.6747792,1.93394043 15.6995708,1.89672766 C15.9616542,1.50072766 16.6218208,1.50072766 16.8839042,1.89672766 C16.9079875,1.93394043 19.3829042,5.67768511 21.3952792,9.50498298 L20.1394042,10.1544511 Z" id="Fill-11"></path>
                    <path d="M27.9791667,1.40425532 C26.6120833,1.40425532 25.5,2.50659574 25.5,3.86170213 C25.5,5.21680851 26.6120833,6.31914894 27.9791667,6.31914894 C29.34625,6.31914894 30.4583333,5.21680851 30.4583333,3.86170213 C30.4583333,2.50659574 29.34625,1.40425532 27.9791667,1.40425532 M27.9791667,7.72340426 C25.8307917,7.72340426 24.0833333,5.99125532 24.0833333,3.86170213 C24.0833333,1.73214894 25.8307917,0 27.9791667,0 C30.1275417,0 31.875,1.73214894 31.875,3.86170213 C31.875,5.99125532 30.1275417,7.72340426 27.9791667,7.72340426" id="Fill-12"></path>
                </g>
            </g>
        </g>
    </g>
</svg>