<?xml version="1.0" encoding="UTF-8"?>
<svg width="20px" height="24px" viewBox="0 0 20 24" version="1.1" xmlns="http://www.w3.org/2000/svg" xmlns:xlink="http://www.w3.org/1999/xlink">
    <!-- Generator: Sketch 51.2 (57519) - http://www.bohemiancoding.com/sketch -->
    <title>Pictos/Location/White</title>
    <desc>Created with Sketch.</desc>
    <defs></defs>
    <g id="Organisms" stroke="none" stroke-width="1" fill="none" fill-rule="evenodd">
        <g id="Footer/Desktop" transform="translate(-165.000000, -84.000000)" fill="#FFFFFF">
            <g id="Location/White" transform="translate(165.000000, 84.000000)">
                <path d="M9.99746693,12.3201307 C8.50802139,12.3201307 7.29552491,11.1135488 7.29552491,9.63136889 C7.29552491,8.14918894 8.50802139,6.94260707 9.99746693,6.94260707 C11.4869125,6.94260707 12.699409,8.14918894 12.699409,9.63136889 C12.699409,11.1135488 11.4869125,12.3201307 9.99746693,12.3201307 M9.99746693,5.59822616 C7.76386153,5.59822616 5.9445539,7.4075388 5.9445539,9.63136889 C5.9445539,11.855199 7.76386153,13.6645116 9.99746693,13.6645116 C12.2310723,13.6645116 14.05038,11.855199 14.05038,9.63136889 C14.05038,7.4075388 12.2310723,5.59822616 9.99746693,5.59822616 M16.115114,16.0362236 L9.99746693,22.1240285 L3.87981987,16.0362236 C0.506895581,12.6797526 0.506895581,7.21820516 3.87981987,3.86173416 C5.56628202,2.18237834 7.78074866,1.34326059 9.99746693,1.34326059 C12.2130594,1.34326059 14.4286518,2.18349866 16.115114,3.86173416 C19.4880383,7.21820516 19.4880383,12.6797526 16.115114,16.0362236 M17.070926,2.91058467 C13.1699972,-0.970194889 6.82493667,-0.970194889 2.92400788,2.91058467 C-0.974669294,6.79136422 -0.974669294,13.1065935 2.92400788,16.9873731 L9.52012384,23.5501926 C9.65184351,23.68239 9.82521813,23.7473684 9.99746693,23.7473684 C10.1697157,23.7473684 10.3430903,23.68239 10.47481,23.5501926 L17.070926,16.9873731 C20.9696032,13.1065935 20.9696032,6.79136422 17.070926,2.91058467" id="Location-point"></path>
            </g>
        </g>
    </g>
</svg>