<?xml version="1.0" encoding="UTF-8"?>
<svg width="21px" height="21px" viewBox="0 0 21 21" version="1.1" xmlns="http://www.w3.org/2000/svg" xmlns:xlink="http://www.w3.org/1999/xlink">
    <!-- Generator: Sketch 51.2 (57519) - http://www.bohemiancoding.com/sketch -->
    <title>Help/White</title>
    <desc>Created with Sketch.</desc>
    <defs></defs>
    <g id="06.-Annonces" stroke="none" stroke-width="1" fill="none" fill-rule="evenodd" opacity="0.6">
        <g id="06.1-RECHERCHE-ANNONCE-Détails---Desktop-HD" transform="translate(-958.000000, -573.000000)" fill="#FFFFFF">
            <g id="Help/White" transform="translate(958.000000, 573.000000)">
                <path d="M12.9623069,7.6309233 C12.9623069,9.06778353 11.9471646,10.2565188 10.603705,10.5206823 L10.603705,11.8962188 C10.603705,12.2084977 10.3499195,12.4613398 10.0376406,12.4613398 C9.72536172,12.4613398 9.4725196,12.2084977 9.4725196,11.8962188 L9.4725196,10.0093374 C9.4725196,9.6970585 9.72536172,9.44327294 10.0376406,9.44327294 C11.0263665,9.44327294 11.8311214,8.63946144 11.8311214,7.65073556 C11.8311214,6.64219742 11.0263665,5.83838592 10.0376406,5.83838592 C9.04985816,5.83838592 8.24510322,6.64219742 8.24510322,7.6309233 C8.24510322,7.94414562 7.99131766,8.20642215 7.67903878,8.20642215 C7.3667599,8.20642215 7.11391778,7.96395788 7.11391778,7.65073556 L7.11391778,7.6309233 C7.11391778,6.0185831 8.4253004,4.70625704 10.0376406,4.70625704 C11.6499808,4.70625704 12.9623069,6.0185831 12.9623069,7.6309233 M10.7923932,14.0482071 C10.7923932,14.4661514 10.4546414,14.8048466 10.0376406,14.8048466 C9.6206398,14.8048466 9.28383146,14.4661514 9.28383146,14.0482071 C9.28383146,13.6302629 9.6206398,13.2925111 10.0376406,13.2925111 C10.4546414,13.2925111 10.7923932,13.6302629 10.7923932,14.0482071 M10.0376406,18.9069269 C5.14778731,18.9069269 1.16929775,14.9284373 1.16929775,10.038584 C1.16929775,5.14873075 5.14778731,1.17024119 10.0376406,1.17024119 C14.9284373,1.17024119 18.9069269,5.14873075 18.9069269,10.038584 C18.9069269,14.9284373 14.9284373,18.9069269 10.0376406,18.9069269 M10.0376406,0.0381123207 C4.52417298,0.0381123207 0.0381123207,4.52417298 0.0381123207,10.038584 C0.0381123207,15.5520517 4.52417298,20.0381123 10.0376406,20.0381123 C15.5520517,20.0381123 20.0381123,15.5520517 20.0381123,10.038584 C20.0381123,4.52417298 15.5520517,0.0381123207 10.0376406,0.0381123207" id="Question-mark"></path>
            </g>
        </g>
    </g>
</svg>