<?xml version="1.0" encoding="UTF-8"?>
<svg width="159px" height="63px" viewBox="0 0 159 63" version="1.1" xmlns="http://www.w3.org/2000/svg" xmlns:xlink="http://www.w3.org/1999/xlink">
    <!-- Generator: Sketch 51.2 (57519) - http://www.bohemiancoding.com/sketch -->
    <title>logo-dark</title>
    <desc>Created with Sketch.</desc>
    <defs></defs>
    <g id="Symbols" stroke="none" stroke-width="1" fill="none" fill-rule="evenodd">
        <g id="Id_MP" fill="#123F5C" fill-rule="nonzero">
            <g id="logo-dark">
                <path d="M142.559418,6.09629091 C142.379055,6.16843636 142.126545,6.49309091 142.270836,7.17847273 C142.4512,8.22458182 142.523345,8.83781818 142.523345,9.88392727 C142.379055,21.6797091 135.344873,28.6056727 126.976,30.5175273 C126.110255,30.6618182 125.857745,30.2289455 126.218473,28.3531636 C126.470982,27.0545455 126.831709,25.1787636 127.120291,23.6997818 C127.661382,21.2107636 129.573236,18.8299636 129.573236,18.8299636 C126.507055,16.3409455 122.971927,18.5053091 121.601164,20.3450182 C121.312582,20.7418182 120.843636,21.4272 120.591127,22.0404364 C119.869673,23.5915636 119.4368,25.5755636 118.931782,28.3170909 C118.571055,30.1568 118.571055,30.6978909 117.236364,30.3371636 C109.12,28.1006545 102.807273,20.5253818 102.807273,11.8679273 C102.807273,8.11636364 104.033745,4.40087273 105.909527,1.47898182 C106.198109,0.901818182 106.162036,0.468945455 106.017745,0.0721454545 C101.9776,4.18443636 99.4525091,9.81178182 99.4525091,16.0162909 C99.4525091,27.3070545 107.713164,36.3252364 117.200291,38.1288727 C116.767418,40.9786182 114.891636,42.2411636 114.891636,42.2411636 C117.957818,44.7301818 121.529018,42.3133091 122.935855,40.8343273 C123.368727,40.4014545 123.837673,39.7882182 124.306618,38.4174545 C126.1824,38.3453091 127.084218,38.1649455 127.084218,38.1649455 C136.4992,36.6138182 144.904145,27.3792 144.904145,16.0162909 C144.832,12.4450909 144.002327,9.09032727 142.559418,6.09629091" id="Shape"></path>
                <path d="M84.1576727,45.3794909 L88.2338909,45.3794909 L88.2338909,46.8945455 L88.2699636,46.8945455 C89.0996364,45.6680727 90.3621818,45.0187636 91.8772364,45.0187636 C95.9895273,45.0187636 97.7210182,48.5538909 97.7210182,52.1972364 C97.7210182,55.5880727 95.9173818,58.7985455 92.2018909,58.7985455 C90.5786182,58.7985455 89.3521455,58.1853091 88.4864,57.0309818 L88.4503273,57.0309818 L88.4503273,62.8026182 L84.1576727,62.8026182 L84.1576727,45.3794909 Z M88.3060364,51.7643636 C88.3060364,54.0369455 88.9553455,55.552 90.9032727,55.552 C92.8151273,55.552 93.4644364,53.568 93.4644364,51.7643636 C93.4644364,50.1050182 92.8151273,48.2653091 90.9393455,48.2653091 C89.7489455,48.2653091 88.3060364,49.0589091 88.3060364,51.7643636 Z" id="Shape"></path>
                <path d="M98.2981818,40.4736 L102.554764,40.4736 L102.554764,47.1470545 L102.590836,47.1470545 C103.240145,45.8123636 105.007709,44.9826909 106.558836,44.9826909 C110.923636,44.9826909 111.248291,48.1570909 111.248291,50.0328727 L111.248291,58.4017455 L106.955636,58.4017455 L106.955636,52.0890182 C106.955636,50.2853818 107.172073,48.4817455 104.827345,48.4817455 C103.204073,48.4817455 102.518691,49.8525091 102.518691,51.2593455 L102.518691,58.3656727 L98.2621091,58.3656727 L98.2981818,40.4736 Z" id="Shape"></path>
                <path d="M116.045964,52.9186909 C116.118109,54.6862545 117.164218,55.8766545 118.967855,55.8766545 C120.013964,55.8766545 121.024,55.4077091 121.4208,54.4337455 L125.424873,54.4337455 C124.631273,57.4638545 121.853673,58.7624727 118.931782,58.7624727 C114.6752,58.7624727 111.789382,56.2013091 111.789382,51.8365091 C111.789382,47.8324364 114.963782,44.9826909 118.823564,44.9826909 C123.513018,44.9826909 125.821673,48.5178182 125.641309,52.9186909 L116.045964,52.9186909 Z M121.348655,50.5378909 C121.276509,49.0949818 120.2304,47.8685091 118.823564,47.8685091 C117.308509,47.8685091 116.298473,48.9506909 116.045964,50.5378909 L121.348655,50.5378909 Z" id="Shape"></path>
                <path d="M126.1824,45.3794909 L130.330764,45.3794909 L130.330764,47.1470545 L130.366836,47.1470545 C131.160436,45.8123636 132.891927,44.9826909 134.479127,44.9826909 C138.843927,44.9826909 139.168582,48.1570909 139.168582,50.0328727 L139.168582,58.4017455 L134.875927,58.4017455 L134.875927,52.0890182 C134.875927,50.3214545 135.092364,48.4817455 132.747636,48.4817455 C131.124364,48.4817455 130.438982,49.8525091 130.438982,51.2593455 L130.438982,58.3656727 L126.1824,58.3656727 L126.1824,45.3794909 Z" id="Shape"></path>
                <path d="M144.290909,43.7201455 L140.034327,43.7201455 L140.034327,40.4375273 L144.290909,40.4375273 L144.290909,43.7201455 Z M140.034327,45.3794909 L144.326982,45.3794909 L144.326982,58.4378182 L140.0704,58.4378182 L140.034327,45.3794909 Z" id="Shape"></path>
                <polygon id="Shape" points="149.052509 51.584 144.904145 45.3434182 149.629673 45.3434182 151.469382 48.4817455 153.309091 45.3434182 157.818182 45.3434182 153.778036 51.5118545 158.395345 58.4017455 153.669818 58.4017455 151.397236 54.6501818 149.268945 58.4017455 144.543418 58.4017455"></polygon>
                <path d="M0.252509091,45.632 L1.51505455,45.632 L1.51505455,47.9406545 C2.34472727,46.6059636 3.53512727,45.3073455 5.84378182,45.3073455 C8.11636364,45.3073455 9.5232,46.6059636 10.2085818,48.1210182 C11.0382545,46.6781091 12.4450909,45.3073455 14.8980364,45.3073455 C17.9642182,45.3073455 19.8760727,47.4717091 19.8760727,50.7182545 L19.8760727,58.5821091 L18.6135273,58.5821091 L18.6135273,50.8625455 C18.6135273,48.0488727 17.1706182,46.4256 14.7537455,46.4256 C12.5533091,46.4256 10.6414545,48.1210182 10.6414545,51.0068364 L10.6414545,58.5821091 L9.37890909,58.5821091 L9.37890909,50.7904 C9.37890909,48.0849455 7.89992727,46.4256 5.59127273,46.4256 C3.28261818,46.4256 1.44290909,48.4456727 1.44290909,51.0789818 L1.44290909,58.5821091 L0.252509091,58.5821091 L0.252509091,45.632 Z" id="Shape"></path>
                <path d="M20.9221818,54.8666182 L20.9221818,54.8305455 C20.9221818,52.1250909 23.2308364,50.6100364 26.5856,50.6100364 C28.3892364,50.6100364 29.6517818,50.8264727 30.8782545,51.1872 L30.8782545,50.6100364 C30.8782545,47.9767273 29.2910545,46.6420364 26.5856,46.6420364 C24.9984,46.6420364 23.6997818,47.0749091 22.5093818,47.6881455 L22.0404364,46.6059636 C23.4833455,45.9566545 24.8541091,45.4877091 26.6577455,45.4877091 C28.4253091,45.4877091 29.8321455,45.9566545 30.7700364,46.9306182 C31.6357818,47.7963636 32.1047273,48.9867636 32.1047273,50.6100364 L32.1047273,58.7264 L30.8782545,58.7264 L30.8782545,56.5620364 C29.9764364,57.8245818 28.3892364,59.0149818 25.9002182,59.0149818 C23.5194182,58.9428364 20.9221818,57.5720727 20.9221818,54.8666182 M30.9143273,53.7844364 L30.9143273,52.3054545 C29.8321455,52.0168727 28.3531636,51.7282909 26.5134545,51.7282909 C23.7719273,51.7282909 22.2208,52.9547636 22.2208,54.7584 L22.2208,54.7944727 C22.2208,56.6702545 23.9883636,57.7885091 25.9723636,57.7885091 C28.6778182,57.7524364 30.9143273,56.1291636 30.9143273,53.7844364" id="Shape"></path>
                <path d="M33.8362182,40.8704 L35.3873455,40.8704 L35.3873455,42.5658182 L33.8362182,42.5658182 L33.8362182,40.8704 Z M33.9805091,45.632 L35.2430545,45.632 L35.2430545,58.6181818 L33.9805091,58.6181818 L33.9805091,45.632 Z" id="Shape"></path>
                <path d="M36.2170182,56.9949091 L36.9384727,55.9848727 C38.3813818,57.0670545 39.9325091,57.6802909 41.5918545,57.6802909 C43.3594182,57.6802909 44.7301818,56.7063273 44.7301818,55.2273455 L44.7301818,55.1912727 C44.7301818,53.6762182 43.1069091,53.0990545 41.3032727,52.5940364 C39.1749818,51.9808 36.8302545,51.3314909 36.8302545,49.0228364 L36.8302545,48.9867636 C36.8302545,46.8945455 38.5978182,45.3794909 41.1229091,45.3794909 C42.6740364,45.3794909 44.4416,45.9566545 45.7402182,46.8224 L45.0909091,47.8685091 C43.9005091,47.0749091 42.4576,46.5698909 41.0868364,46.5698909 C39.3192727,46.5698909 38.1288727,47.5438545 38.1288727,48.8424727 L38.1288727,48.8785455 C38.1288727,50.3214545 39.8964364,50.8625455 41.7361455,51.4036364 C43.8283636,51.9808 46.0288,52.7383273 46.0288,55.0469818 L46.0288,55.0830545 C46.0288,57.3917091 44.0448,58.8706909 41.5557818,58.8706909 C39.68,58.8706909 37.5877818,58.1131636 36.2170182,56.9949091" id="Shape"></path>
                <path d="M46.4256,52.1972364 L46.4256,52.1611636 C46.4256,48.5178182 49.2392727,45.3434182 53.1351273,45.3434182 C56.9949091,45.3434182 59.7725091,48.4456727 59.7725091,52.0890182 L59.7725091,52.1250909 C59.7725091,55.7684364 56.9588364,58.9428364 53.0629818,58.9428364 C49.2032,58.9428364 46.4256,55.8405818 46.4256,52.1972364 M58.4017455,52.1972364 L58.4017455,52.1611636 C58.4017455,49.0228364 56.0570182,46.5338182 53.0629818,46.5338182 C49.9968,46.5338182 47.7602909,49.0589091 47.7602909,52.1250909 L47.7602909,52.1611636 C47.7602909,55.2994909 50.1050182,57.7885091 53.0990545,57.7885091 C56.2013091,57.7524364 58.4017455,55.2634182 58.4017455,52.1972364" id="Shape"></path>
                <path d="M60.7104,45.632 L61.9729455,45.632 L61.9729455,48.0488727 C62.8386909,46.5338182 64.2816,45.3073455 66.6624,45.3073455 C69.9450182,45.3073455 71.8568727,47.5438545 71.8568727,50.6461091 L71.8568727,58.5821091 L70.5943273,58.5821091 L70.5943273,50.8625455 C70.5943273,48.1931636 69.0792727,46.4256 66.4820364,46.4256 C63.9208727,46.4256 61.9729455,48.3735273 61.9729455,51.0789818 L61.9729455,58.5821091 L60.7104,58.5821091 L60.7104,45.632 Z" id="Shape"></path>
                <path d="M72.6144,56.9949091 L73.3358545,55.9848727 C74.7787636,57.0670545 76.3298909,57.6802909 77.9892364,57.6802909 C79.7568,57.6802909 81.1275636,56.7063273 81.1275636,55.2273455 L81.1275636,55.1912727 C81.1275636,53.6762182 79.5042909,53.0990545 77.7006545,52.5940364 C75.5723636,51.9808 73.2276364,51.3314909 73.2276364,49.0228364 L73.2276364,48.9867636 C73.2276364,46.8945455 74.9952,45.3794909 77.5202909,45.3794909 C79.0714182,45.3794909 80.8389818,45.9566545 82.1376,46.8224 L81.4882909,47.8685091 C80.2978909,47.0749091 78.8549818,46.5698909 77.4842182,46.5698909 C75.7166545,46.5698909 74.5262545,47.5438545 74.5262545,48.8424727 L74.5262545,48.8785455 C74.5262545,50.3214545 76.2938182,50.8625455 78.1335273,51.4036364 C80.2257455,51.9808 82.4261818,52.7383273 82.4261818,55.0469818 L82.4261818,55.0830545 C82.4261818,57.3917091 80.4421818,58.8706909 77.9531636,58.8706909 C76.0413091,58.8706909 73.9851636,58.1131636 72.6144,56.9949091" id="Shape"></path>
            </g>
        </g>
    </g>
</svg>