<?xml version="1.0" encoding="UTF-8"?>
<svg width="7px" height="16px" viewBox="0 0 7 16" version="1.1" xmlns="http://www.w3.org/2000/svg" xmlns:xlink="http://www.w3.org/1999/xlink">
    <!-- Generator: Sketch 51.2 (57519) - http://www.bohemiancoding.com/sketch -->
    <title>Social/Facebook/White</title>
    <desc>Created with Sketch.</desc>
    <defs></defs>
    <g id="Organisms" stroke="none" stroke-width="1" fill="none" fill-rule="evenodd">
        <g id="Footer/Desktop" transform="translate(-165.000000, -435.000000)" fill="#FFFFFF" fill-rule="nonzero">
            <g id="Group" transform="translate(165.000000, 435.000000)">
                <g id="Social/Facebook/White">
                    <path d="M6.8909487,5.17122594 L4.59005397,5.17122594 L4.59005397,3.52381969 C4.59005397,2.90513881 4.96566111,2.76090041 5.23021134,2.76090041 C5.49415963,2.76090041 6.85392972,2.76090041 6.85392972,2.76090041 L6.85392972,0.0410701596 L4.61774296,0.0315418826 C2.13536497,0.0315418826 1.57044941,2.06007921 1.57044941,3.35822481 L1.57044941,5.17122594 L0.134835567,5.17122594 L0.134835567,7.97385363 L1.57044941,7.97385363 C1.57044941,11.5706139 1.57044941,15.9043372 1.57044941,15.9043372 L4.59005397,15.9043372 C4.59005397,15.9043372 4.59005397,11.527901 4.59005397,7.97385363 L6.62760234,7.97385363 L6.8909487,5.17122594 Z" id="Shape"></path>
                </g>
            </g>
        </g>
    </g>
</svg>