<?xml version="1.0" encoding="UTF-8"?>
<svg width="16px" height="14px" viewBox="0 0 16 14" version="1.1" xmlns="http://www.w3.org/2000/svg" xmlns:xlink="http://www.w3.org/1999/xlink">
    <!-- Generator: Sketch 51.2 (57519) - http://www.bohemiancoding.com/sketch -->
    <title>Social/GooglePlus/White</title>
    <desc>Created with Sketch.</desc>
    <defs></defs>
    <g id="Organisms" stroke="none" stroke-width="1" fill="none" fill-rule="evenodd">
        <g id="Footer/Desktop" transform="translate(-255.000000, -436.000000)" fill="#FFFFFF" fill-rule="nonzero">
            <g id="Group" transform="translate(165.000000, 435.000000)">
                <g id="Social/GooglePlus/White" transform="translate(90.000000, 1.000000)">
                    <path d="M15.2120361,5.80511748 L12.9278294,5.80511748 L12.9278294,3.55188591 C12.9278294,3.37996824 12.7864348,3.24015387 12.6125042,3.24015387 L11.9620891,3.24015387 C11.7869423,3.24015387 11.6455477,3.37996824 11.6455477,3.55188591 L11.6455477,5.80511748 L9.36134099,5.80511748 C9.18741045,5.80511748 9.04540771,5.94523188 9.04540771,6.11744958 L9.04540771,6.75921554 C9.04540771,6.93143324 9.18741045,7.07094758 9.36134099,7.07094758 L11.6455477,7.07094758 L11.6455477,9.32537928 C11.6455477,9.49759698 11.7869423,9.63711132 11.9620891,9.63711132 L12.6125042,9.63711132 C12.7864348,9.63711132 12.9278294,9.49759698 12.9278294,9.32537928 L12.9278294,7.07064755 L15.2120361,7.07064755 C15.3859666,7.07064755 15.5279694,6.93113321 15.5279694,6.75891551 L15.5279694,6.11714955 C15.5279694,5.94493185 15.3859666,5.80511748 15.2120361,5.80511748 Z" id="Shape"></path>
                    <path d="M7.5359825,7.78112057 C7.05554498,7.44538606 6.61889418,6.95303546 6.61129232,6.80181992 C6.61129232,6.52639161 6.63622642,6.39467808 7.26231556,5.91342862 C8.07176155,5.28816435 8.51753459,4.46607986 8.51753459,3.5974906 C8.51753459,2.80990965 8.27366694,2.11023774 7.85860541,1.61878723 L8.18062018,1.61878723 C8.24721247,1.61878723 8.31258846,1.59838514 8.36580148,1.55998119 L9.26434126,0.917615171 C9.37593656,0.838707061 9.42276401,0.697992599 9.3801936,0.569279371 C9.33731911,0.440866173 9.21690566,0.353257169 9.07976812,0.353257169 L5.06112114,0.353257169 C4.62142959,0.353257169 4.17474433,0.429765032 3.73626907,0.578580327 C2.27184687,1.07693154 1.24772436,2.30825809 1.24772436,3.572288 C1.24772436,5.36317206 2.65376429,6.72051156 4.53324802,6.76311594 C4.49645502,6.90503053 4.47790648,7.0448449 4.47790648,7.18195899 C4.47790648,7.45798736 4.54875581,7.71931422 4.69471151,7.97194018 C4.67768335,7.97194018 4.66126333,7.97194018 4.64301887,7.97194018 C2.85141263,7.97194018 1.23434509,8.83932932 0.620418923,10.130062 C0.4604758,10.4657965 0.378983867,10.8051314 0.378983867,11.1402658 C0.378983867,11.4660993 0.463820618,11.7796315 0.630149303,12.0742618 C1.01601969,12.7553318 1.84462237,13.2836861 2.9645283,13.5627148 C3.54257369,13.7067296 4.16379765,13.7802371 4.8087394,13.7802371 C5.38830517,13.7802371 5.94080831,13.7064295 6.45165327,13.5606146 C8.04439486,13.1042677 9.07429478,11.9473488 9.07429478,10.6119115 C9.0739907,9.3304798 8.65649658,8.56330096 7.5359825,7.78112057 Z M2.46067706,10.714522 C2.46067706,9.78232624 3.66085863,8.96474221 5.02888925,8.96474221 L5.06568225,8.96474221 C5.36337107,8.96834258 5.6537621,9.01154702 5.92742904,9.09435553 C6.02138802,9.1582621 6.11200219,9.21916836 6.19896746,9.27767438 C6.83265846,9.70371816 7.25136888,9.98484706 7.36782937,10.4360934 C7.39519606,10.5498051 7.40887941,10.6635168 7.40887941,10.7736281 C7.40887941,11.9344474 6.53162483,12.5228079 4.8005294,12.5228079 C3.48844846,12.5228079 2.46067706,11.7289263 2.46067706,10.714522 Z M3.70555756,1.90651681 C3.91932185,1.66559204 4.19937435,1.53837897 4.51378726,1.53837897 L4.54936396,1.53897903 C5.43756522,1.56478168 6.2874531,2.54138205 6.44374733,3.71600278 C6.53162483,4.37367037 6.38323653,4.99203392 6.04814657,5.36887265 C5.83377413,5.61039747 5.5576746,5.73761055 5.23049057,5.73761055 C5.23049057,5.73761055 5.23049057,5.73761055 5.22988242,5.73761055 L5.21559092,5.73761055 C4.34563413,5.71120783 3.47750178,4.69740364 3.32211977,3.52428307 C3.23485042,2.86841566 3.37472464,2.27885507 3.70555756,1.90651681 Z" id="Shape"></path>
                </g>
            </g>
        </g>
    </g>
</svg>