<?xml version="1.0" encoding="UTF-8"?>
<svg width="14px" height="14px" viewBox="0 0 14 14" version="1.1" xmlns="http://www.w3.org/2000/svg" xmlns:xlink="http://www.w3.org/1999/xlink">
    <!-- Generator: Sketch 51.2 (57519) - http://www.bohemiancoding.com/sketch -->
    <title>Social/Linkedin/White</title>
    <desc>Created with Sketch.</desc>
    <defs></defs>
    <g id="Organisms" stroke="none" stroke-width="1" fill="none" fill-rule="evenodd">
        <g id="Footer/Desktop" transform="translate(-222.000000, -436.000000)" fill="#FFFFFF" fill-rule="nonzero">
            <g id="Group" transform="translate(165.000000, 435.000000)">
                <g id="Social/Linkedin/White" transform="translate(57.000000, 1.000000)">
                    <path d="M12.9649772,0 L1.03417299,0 C0.463125948,0 0,0.449233986 0,1.00289517 L0,12.9973863 C0,13.550766 0.463125948,14 1.03417299,14 L12.9649772,14 C13.5368741,14 14,13.5504845 14,12.9973863 L14,1.00289517 C14,0.448952511 13.5365908,0 12.9649772,0 Z M4.24348002,11.7197716 L2.12896308,11.7197716 L2.12896308,5.39812618 L4.24348002,5.39812618 L4.24348002,11.7197716 Z M3.18636318,4.5345611 L3.1722003,4.5345611 C2.46292362,4.5345611 2.00404654,4.04901685 2.00404654,3.44243838 C2.00404654,2.82234911 2.47708649,2.35031565 3.20024279,2.35031565 C3.92368235,2.35031565 4.36867982,2.82234911 4.38284269,3.44243838 C4.38284269,4.04901685 3.92339909,4.5345611 3.18636318,4.5345611 Z M11.8684876,11.7197716 L9.75397066,11.7197716 L9.75397066,8.33700591 C9.75397066,7.48751458 9.4480526,6.90767622 8.6829742,6.90767622 C8.09889732,6.90767622 7.75105716,7.2986449 7.59781487,7.67638425 C7.54201315,7.81121074 7.52841679,7.99979895 7.52841679,8.1889501 L7.52841679,11.7194901 L5.41389985,11.7194901 C5.41389985,11.7194901 5.44165908,5.99034943 5.41389985,5.39784471 L7.52841679,5.39784471 L7.52841679,6.2926535 C7.80940819,5.86199686 8.31190693,5.24866299 9.43445625,5.24866299 C10.8255336,5.24866299 11.8687709,6.15247899 11.8687709,8.09437452 L11.8687709,11.7197716 L11.8684876,11.7197716 Z" id="Shape"></path>
                </g>
            </g>
        </g>
    </g>
</svg>